<mxfile host="Electron" agent="Mozilla/5.0 (Windows NT 10.0; Win64; x64) AppleWebKit/537.36 (KHTML, like Gecko) draw.io/25.0.1 Chrome/128.0.6613.186 Electron/32.2.6 Safari/537.36" version="25.0.1" pages="3">
  <diagram id="T_JlJ7YuFkPnzbs99BFe" name="EPC клининг">
    <mxGraphModel dx="3417" dy="2924" grid="1" gridSize="10" guides="1" tooltips="1" connect="1" arrows="1" fold="1" page="1" pageScale="1" pageWidth="827" pageHeight="1169" math="0" shadow="0">
      <root>
        <mxCell id="0" />
        <mxCell id="1" parent="0" />
        <mxCell id="84rn6jDBWOyITU6q0No7-1" value="&lt;b&gt;Оформление заказа &lt;br&gt;на сайте&lt;/b&gt;" style="shape=step;perimeter=stepPerimeter;whiteSpace=wrap;html=1;fixedSize=1;fillColor=#bac8d3;strokeColor=#23445d;" parent="1" vertex="1">
          <mxGeometry x="-640" y="-1130" width="190" height="80" as="geometry" />
        </mxCell>
        <mxCell id="84rn6jDBWOyITU6q0No7-2" value="&lt;b&gt;Рассмотрение заявки&amp;nbsp;&lt;/b&gt;" style="shape=step;perimeter=stepPerimeter;whiteSpace=wrap;html=1;fixedSize=1;fillColor=#60a917;fontColor=#ffffff;strokeColor=#2D7600;" parent="1" vertex="1">
          <mxGeometry x="-440" y="-1130" width="190" height="80" as="geometry" />
        </mxCell>
        <mxCell id="84rn6jDBWOyITU6q0No7-3" value="&lt;b&gt;Выполнение заявки&lt;/b&gt;" style="shape=step;perimeter=stepPerimeter;whiteSpace=wrap;html=1;fixedSize=1;fillColor=#60a917;strokeColor=#2D7600;fontColor=#ffffff;" parent="1" vertex="1">
          <mxGeometry x="-240" y="-1130" width="190" height="80" as="geometry" />
        </mxCell>
        <mxCell id="84rn6jDBWOyITU6q0No7-11" value="&lt;b&gt;заявка поступила&lt;/b&gt;" style="shape=hexagon;perimeter=hexagonPerimeter2;whiteSpace=wrap;html=1;fixedSize=1;strokeColor=#9673a6;fillColor=#e1d5e7;" parent="1" vertex="1">
          <mxGeometry x="-500" y="-950" width="120" height="80" as="geometry" />
        </mxCell>
        <mxCell id="i33cDD-x6CmDFARpjJHK-1" style="edgeStyle=orthogonalEdgeStyle;rounded=0;orthogonalLoop=1;jettySize=auto;html=1;entryX=0.5;entryY=0;entryDx=0;entryDy=0;" parent="1" source="84rn6jDBWOyITU6q0No7-12" target="WLGE5zU99HW_wf8TPF3n-3" edge="1">
          <mxGeometry relative="1" as="geometry" />
        </mxCell>
        <mxCell id="84rn6jDBWOyITU6q0No7-12" value="&lt;b&gt;расмотреть заявки&lt;/b&gt;" style="rounded=1;whiteSpace=wrap;html=1;strokeColor=#82b366;fillColor=#d5e8d4;" parent="1" vertex="1">
          <mxGeometry x="-500" y="-830" width="120" height="60" as="geometry" />
        </mxCell>
        <mxCell id="84rn6jDBWOyITU6q0No7-14" value="" style="endArrow=none;html=1;rounded=0;exitX=1;exitY=0.5;exitDx=0;exitDy=0;" parent="1" source="84rn6jDBWOyITU6q0No7-12" edge="1">
          <mxGeometry width="50" height="50" relative="1" as="geometry">
            <mxPoint x="-110" y="-840" as="sourcePoint" />
            <mxPoint x="-320" y="-800" as="targetPoint" />
          </mxGeometry>
        </mxCell>
        <mxCell id="84rn6jDBWOyITU6q0No7-15" value="&lt;b&gt;менеджер&lt;/b&gt;" style="ellipse;whiteSpace=wrap;html=1;fillColor=#fff2cc;strokeColor=#d6b656;" parent="1" vertex="1">
          <mxGeometry x="-330" y="-830" width="70" height="60" as="geometry" />
        </mxCell>
        <mxCell id="i33cDD-x6CmDFARpjJHK-49" style="edgeStyle=orthogonalEdgeStyle;rounded=0;orthogonalLoop=1;jettySize=auto;html=1;" parent="1" source="WLGE5zU99HW_wf8TPF3n-1" edge="1">
          <mxGeometry relative="1" as="geometry">
            <mxPoint x="-650" y="-20" as="targetPoint" />
            <Array as="points">
              <mxPoint x="-523" y="-330" />
              <mxPoint x="-700" y="-330" />
              <mxPoint x="-700" y="-20" />
            </Array>
          </mxGeometry>
        </mxCell>
        <mxCell id="WLGE5zU99HW_wf8TPF3n-1" value="&lt;b&gt;&amp;nbsp;поступил спам&lt;/b&gt;" style="shape=hexagon;perimeter=hexagonPerimeter2;whiteSpace=wrap;html=1;fixedSize=1;strokeColor=#9673a6;fillColor=#e1d5e7;" parent="1" vertex="1">
          <mxGeometry x="-582.5" y="-684" width="120" height="80" as="geometry" />
        </mxCell>
        <mxCell id="i33cDD-x6CmDFARpjJHK-6" style="edgeStyle=orthogonalEdgeStyle;rounded=0;orthogonalLoop=1;jettySize=auto;html=1;" parent="1" source="WLGE5zU99HW_wf8TPF3n-2" edge="1">
          <mxGeometry relative="1" as="geometry">
            <mxPoint x="-357.5" y="-570" as="targetPoint" />
          </mxGeometry>
        </mxCell>
        <mxCell id="WLGE5zU99HW_wf8TPF3n-2" value="&lt;b&gt;поступила верная заявка&lt;/b&gt;" style="shape=hexagon;perimeter=hexagonPerimeter2;whiteSpace=wrap;html=1;fixedSize=1;strokeColor=#9673a6;fillColor=#e1d5e7;" parent="1" vertex="1">
          <mxGeometry x="-417.5" y="-684" width="120" height="80" as="geometry" />
        </mxCell>
        <mxCell id="WLGE5zU99HW_wf8TPF3n-5" style="edgeStyle=orthogonalEdgeStyle;rounded=0;orthogonalLoop=1;jettySize=auto;html=1;entryX=0.5;entryY=0;entryDx=0;entryDy=0;" parent="1" source="WLGE5zU99HW_wf8TPF3n-3" target="WLGE5zU99HW_wf8TPF3n-2" edge="1">
          <mxGeometry relative="1" as="geometry">
            <Array as="points">
              <mxPoint x="-357.5" y="-714" />
            </Array>
          </mxGeometry>
        </mxCell>
        <mxCell id="WLGE5zU99HW_wf8TPF3n-7" style="edgeStyle=orthogonalEdgeStyle;rounded=0;orthogonalLoop=1;jettySize=auto;html=1;entryX=0.5;entryY=0;entryDx=0;entryDy=0;" parent="1" source="WLGE5zU99HW_wf8TPF3n-3" target="WLGE5zU99HW_wf8TPF3n-1" edge="1">
          <mxGeometry relative="1" as="geometry">
            <mxPoint x="-522.5" y="-709" as="targetPoint" />
            <Array as="points">
              <mxPoint x="-522.5" y="-714" />
            </Array>
          </mxGeometry>
        </mxCell>
        <mxCell id="WLGE5zU99HW_wf8TPF3n-3" value="&lt;span style=&quot;color: rgba(0, 0, 0, 0); font-family: monospace; font-size: 0px; text-align: start; background-color: rgb(251, 251, 251);&quot;&gt;%3CmxGraphModel%3E%3Croot%3E%3CmxCell%20id%3D%220%22%2F%3E%3CmxCell%20id%3D%221%22%20parent%3D%220%22%2F%3E%3CmxCell%20id%3D%222%22%20value%3D%22%D0%B7%D0%B0%D1%8F%D0%B2%D0%BA%D0%B0%20%D0%BF%D0%BE%D1%81%D1%82%D1%83%D0%BF%D0%B8%D0%BB%D0%B0%22%20style%3D%22shape%3Dhexagon%3Bperimeter%3DhexagonPerimeter2%3BwhiteSpace%3Dwrap%3Bhtml%3D1%3BfixedSize%3D1%3BstrokeColor%3D%239673a6%3BfillColor%3D%23e1d5e7%3B%22%20vertex%3D%221%22%20parent%3D%221%22%3E%3CmxGeometry%20x%3D%22490%22%20y%3D%22-1010%22%20width%3D%22120%22%20height%3D%2280%22%20as%3D%22geometry%22%2F%3E%3C%2FmxCell%3E%3C%2Froot%3E%3C%2FmxGraphModel%3E&lt;/span&gt;" style="shape=mxgraph.bpmn.shape;html=1;verticalLabelPosition=bottom;labelBackgroundColor=#ffffff;verticalAlign=top;align=center;perimeter=rhombusPerimeter;background=gateway;outlineConnect=0;outline=none;symbol=exclusiveGw;" parent="1" vertex="1">
          <mxGeometry x="-462.5" y="-734" width="45" height="40" as="geometry" />
        </mxCell>
        <mxCell id="i33cDD-x6CmDFARpjJHK-3" value="" style="endArrow=classic;html=1;rounded=0;" parent="1" edge="1">
          <mxGeometry width="50" height="50" relative="1" as="geometry">
            <mxPoint x="-440" y="-870" as="sourcePoint" />
            <mxPoint x="-440" y="-830" as="targetPoint" />
            <Array as="points">
              <mxPoint x="-440" y="-840" />
            </Array>
          </mxGeometry>
        </mxCell>
        <mxCell id="i33cDD-x6CmDFARpjJHK-22" value="" style="edgeStyle=orthogonalEdgeStyle;rounded=0;orthogonalLoop=1;jettySize=auto;html=1;" parent="1" source="i33cDD-x6CmDFARpjJHK-8" target="i33cDD-x6CmDFARpjJHK-21" edge="1">
          <mxGeometry relative="1" as="geometry">
            <Array as="points">
              <mxPoint x="-357" y="-490" />
              <mxPoint x="-357" y="-490" />
            </Array>
          </mxGeometry>
        </mxCell>
        <mxCell id="i33cDD-x6CmDFARpjJHK-8" value="&lt;b&gt;просмотр парамеров заявки и расписание бригад&lt;/b&gt;" style="rounded=1;whiteSpace=wrap;html=1;strokeColor=#82b366;fillColor=#d5e8d4;" parent="1" vertex="1">
          <mxGeometry x="-413" y="-570" width="120" height="60" as="geometry" />
        </mxCell>
        <mxCell id="i33cDD-x6CmDFARpjJHK-10" value="" style="endArrow=none;html=1;rounded=0;" parent="1" edge="1">
          <mxGeometry width="50" height="50" relative="1" as="geometry">
            <mxPoint x="-290" y="-540" as="sourcePoint" />
            <mxPoint x="-250" y="-540" as="targetPoint" />
          </mxGeometry>
        </mxCell>
        <mxCell id="i33cDD-x6CmDFARpjJHK-11" value="&lt;div&gt;&lt;b&gt;бригада занята&lt;/b&gt;&lt;/div&gt;" style="shape=hexagon;perimeter=hexagonPerimeter2;whiteSpace=wrap;html=1;fixedSize=1;strokeColor=#9673a6;fillColor=#e1d5e7;" parent="1" vertex="1">
          <mxGeometry x="-520" y="-420" width="120" height="80" as="geometry" />
        </mxCell>
        <mxCell id="i33cDD-x6CmDFARpjJHK-12" value="&lt;b&gt;бригада свободна&lt;/b&gt;" style="shape=hexagon;perimeter=hexagonPerimeter2;whiteSpace=wrap;html=1;fixedSize=1;strokeColor=#9673a6;fillColor=#e1d5e7;" parent="1" vertex="1">
          <mxGeometry x="-260" y="-380" width="120" height="80" as="geometry" />
        </mxCell>
        <mxCell id="i33cDD-x6CmDFARpjJHK-26" style="edgeStyle=orthogonalEdgeStyle;rounded=0;orthogonalLoop=1;jettySize=auto;html=1;entryX=0.5;entryY=0;entryDx=0;entryDy=0;" parent="1" source="i33cDD-x6CmDFARpjJHK-21" target="i33cDD-x6CmDFARpjJHK-12" edge="1">
          <mxGeometry relative="1" as="geometry">
            <mxPoint x="-260" y="-430" as="targetPoint" />
            <Array as="points">
              <mxPoint x="-200" y="-460" />
              <mxPoint x="-200" y="-420" />
            </Array>
          </mxGeometry>
        </mxCell>
        <mxCell id="i33cDD-x6CmDFARpjJHK-27" style="edgeStyle=orthogonalEdgeStyle;rounded=0;orthogonalLoop=1;jettySize=auto;html=1;" parent="1" source="i33cDD-x6CmDFARpjJHK-21" edge="1">
          <mxGeometry relative="1" as="geometry">
            <mxPoint x="-460" y="-420" as="targetPoint" />
          </mxGeometry>
        </mxCell>
        <mxCell id="i33cDD-x6CmDFARpjJHK-21" value="" style="shape=mxgraph.bpmn.shape;html=1;verticalLabelPosition=bottom;labelBackgroundColor=#ffffff;verticalAlign=top;align=center;perimeter=rhombusPerimeter;background=gateway;outlineConnect=0;outline=none;symbol=exclusiveGw;" parent="1" vertex="1">
          <mxGeometry x="-382" y="-480" width="52" height="40" as="geometry" />
        </mxCell>
        <mxCell id="i33cDD-x6CmDFARpjJHK-41" style="edgeStyle=orthogonalEdgeStyle;rounded=0;orthogonalLoop=1;jettySize=auto;html=1;" parent="1" source="i33cDD-x6CmDFARpjJHK-28" edge="1">
          <mxGeometry relative="1" as="geometry">
            <mxPoint x="-470" y="-220" as="targetPoint" />
          </mxGeometry>
        </mxCell>
        <mxCell id="i33cDD-x6CmDFARpjJHK-28" value="&lt;b&gt;предложить другое время клиенту&lt;/b&gt;" style="rounded=1;whiteSpace=wrap;html=1;strokeColor=#82b366;fillColor=#d5e8d4;" parent="1" vertex="1">
          <mxGeometry x="-530" y="-300" width="120" height="60" as="geometry" />
        </mxCell>
        <mxCell id="i33cDD-x6CmDFARpjJHK-37" value="" style="endArrow=none;html=1;rounded=0;exitX=1;exitY=0.5;exitDx=0;exitDy=0;" parent="1" edge="1">
          <mxGeometry width="50" height="50" relative="1" as="geometry">
            <mxPoint x="-582.5000000000002" y="-270" as="sourcePoint" />
            <mxPoint x="-530" y="-270" as="targetPoint" />
            <Array as="points" />
          </mxGeometry>
        </mxCell>
        <mxCell id="i33cDD-x6CmDFARpjJHK-38" style="edgeStyle=orthogonalEdgeStyle;rounded=0;orthogonalLoop=1;jettySize=auto;html=1;entryX=0.583;entryY=0;entryDx=0;entryDy=0;entryPerimeter=0;" parent="1" source="i33cDD-x6CmDFARpjJHK-11" target="i33cDD-x6CmDFARpjJHK-28" edge="1">
          <mxGeometry relative="1" as="geometry" />
        </mxCell>
        <mxCell id="APem-zlBC7yvItlj1Ssv-6" value="" style="edgeStyle=orthogonalEdgeStyle;rounded=0;orthogonalLoop=1;jettySize=auto;html=1;" parent="1" source="i33cDD-x6CmDFARpjJHK-39" target="i33cDD-x6CmDFARpjJHK-47" edge="1">
          <mxGeometry relative="1" as="geometry" />
        </mxCell>
        <mxCell id="i33cDD-x6CmDFARpjJHK-39" value="&lt;b&gt;клиент отказался&lt;/b&gt;" style="shape=hexagon;perimeter=hexagonPerimeter2;whiteSpace=wrap;html=1;fixedSize=1;strokeColor=#9673a6;fillColor=#e1d5e7;" parent="1" vertex="1">
          <mxGeometry x="-650" y="-170" width="120" height="80" as="geometry" />
        </mxCell>
        <mxCell id="APem-zlBC7yvItlj1Ssv-36" style="edgeStyle=orthogonalEdgeStyle;rounded=0;orthogonalLoop=1;jettySize=auto;html=1;exitX=1;exitY=0.5;exitDx=0;exitDy=0;entryX=0;entryY=0.5;entryDx=0;entryDy=0;" parent="1" source="i33cDD-x6CmDFARpjJHK-40" target="APem-zlBC7yvItlj1Ssv-4" edge="1">
          <mxGeometry relative="1" as="geometry" />
        </mxCell>
        <mxCell id="i33cDD-x6CmDFARpjJHK-40" value="&lt;b&gt;клиент согласен&lt;/b&gt;" style="shape=hexagon;perimeter=hexagonPerimeter2;whiteSpace=wrap;html=1;fixedSize=1;strokeColor=#9673a6;fillColor=#e1d5e7;" parent="1" vertex="1">
          <mxGeometry x="-430" y="-170" width="120" height="80" as="geometry" />
        </mxCell>
        <mxCell id="i33cDD-x6CmDFARpjJHK-43" style="edgeStyle=orthogonalEdgeStyle;rounded=0;orthogonalLoop=1;jettySize=auto;html=1;entryX=0.5;entryY=0;entryDx=0;entryDy=0;" parent="1" source="i33cDD-x6CmDFARpjJHK-42" target="i33cDD-x6CmDFARpjJHK-40" edge="1">
          <mxGeometry relative="1" as="geometry" />
        </mxCell>
        <mxCell id="i33cDD-x6CmDFARpjJHK-46" style="edgeStyle=orthogonalEdgeStyle;rounded=0;orthogonalLoop=1;jettySize=auto;html=1;" parent="1" source="i33cDD-x6CmDFARpjJHK-42" edge="1">
          <mxGeometry relative="1" as="geometry">
            <mxPoint x="-580" y="-170" as="targetPoint" />
          </mxGeometry>
        </mxCell>
        <mxCell id="i33cDD-x6CmDFARpjJHK-42" value="" style="shape=mxgraph.bpmn.shape;html=1;verticalLabelPosition=bottom;labelBackgroundColor=#ffffff;verticalAlign=top;align=center;perimeter=rhombusPerimeter;background=gateway;outlineConnect=0;outline=none;symbol=exclusiveGw;" parent="1" vertex="1">
          <mxGeometry x="-495" y="-220" width="50" height="40" as="geometry" />
        </mxCell>
        <mxCell id="i33cDD-x6CmDFARpjJHK-47" value="&lt;b&gt;присвоить статус заявка отменена&lt;/b&gt;" style="rounded=1;whiteSpace=wrap;html=1;strokeColor=#82b366;fillColor=#d5e8d4;" parent="1" vertex="1">
          <mxGeometry x="-650" y="-40" width="120" height="60" as="geometry" />
        </mxCell>
        <mxCell id="APem-zlBC7yvItlj1Ssv-40" style="edgeStyle=orthogonalEdgeStyle;rounded=0;orthogonalLoop=1;jettySize=auto;html=1;exitX=0.5;exitY=1;exitDx=0;exitDy=0;entryX=0.5;entryY=0;entryDx=0;entryDy=0;" parent="1" source="APem-zlBC7yvItlj1Ssv-4" target="APem-zlBC7yvItlj1Ssv-39" edge="1">
          <mxGeometry relative="1" as="geometry" />
        </mxCell>
        <mxCell id="APem-zlBC7yvItlj1Ssv-4" value="направить заявку на бригадира" style="rounded=1;whiteSpace=wrap;html=1;strokeColor=#82b366;fillColor=#d5e8d4;fontStyle=1" parent="1" vertex="1">
          <mxGeometry x="-250" y="-160" width="120" height="60" as="geometry" />
        </mxCell>
        <mxCell id="APem-zlBC7yvItlj1Ssv-10" value="" style="endArrow=none;html=1;rounded=0;" parent="1" edge="1">
          <mxGeometry width="50" height="50" relative="1" as="geometry">
            <mxPoint x="-705" y="-5" as="sourcePoint" />
            <mxPoint x="-700.7403775195539" y="-1.3228032114925554" as="targetPoint" />
            <Array as="points">
              <mxPoint x="-710" />
            </Array>
          </mxGeometry>
        </mxCell>
        <mxCell id="APem-zlBC7yvItlj1Ssv-11" value="" style="endArrow=none;html=1;rounded=0;" parent="1" edge="1">
          <mxGeometry width="50" height="50" relative="1" as="geometry">
            <mxPoint x="-698" as="sourcePoint" />
            <mxPoint x="-652.5" as="targetPoint" />
          </mxGeometry>
        </mxCell>
        <mxCell id="APem-zlBC7yvItlj1Ssv-13" value="&lt;b&gt;менеджер&lt;/b&gt;" style="ellipse;whiteSpace=wrap;html=1;fillColor=#fff2cc;strokeColor=#d6b656;" parent="1" vertex="1">
          <mxGeometry x="-250" y="-570" width="70" height="60" as="geometry" />
        </mxCell>
        <mxCell id="APem-zlBC7yvItlj1Ssv-14" value="&lt;b&gt;менеджер&lt;/b&gt;" style="ellipse;whiteSpace=wrap;html=1;fillColor=#fff2cc;strokeColor=#d6b656;" parent="1" vertex="1">
          <mxGeometry x="-770" y="-30" width="70" height="60" as="geometry" />
        </mxCell>
        <mxCell id="APem-zlBC7yvItlj1Ssv-15" value="&lt;b&gt;менеджер&lt;/b&gt;" style="ellipse;whiteSpace=wrap;html=1;fillColor=#fff2cc;strokeColor=#d6b656;" parent="1" vertex="1">
          <mxGeometry x="-90" y="-160" width="70" height="60" as="geometry" />
        </mxCell>
        <mxCell id="APem-zlBC7yvItlj1Ssv-16" value="&lt;b&gt;менеджер&lt;/b&gt;" style="ellipse;whiteSpace=wrap;html=1;fillColor=#fff2cc;strokeColor=#d6b656;" parent="1" vertex="1">
          <mxGeometry x="-640" y="-300" width="70" height="60" as="geometry" />
        </mxCell>
        <mxCell id="APem-zlBC7yvItlj1Ssv-24" value="&lt;b&gt;заявка клиента&lt;/b&gt;" style="shape=note;whiteSpace=wrap;html=1;backgroundOutline=1;darkOpacity=0.05;size=21;fillColor=#b0e3e6;strokeColor=#0e8088;align=left;" parent="1" vertex="1">
          <mxGeometry x="-620" y="-830" width="70" height="50" as="geometry" />
        </mxCell>
        <mxCell id="APem-zlBC7yvItlj1Ssv-26" value="" style="endArrow=none;html=1;rounded=0;" parent="1" edge="1">
          <mxGeometry width="50" height="50" relative="1" as="geometry">
            <mxPoint x="-550" y="-800" as="sourcePoint" />
            <mxPoint x="-502.5" y="-800" as="targetPoint" />
          </mxGeometry>
        </mxCell>
        <mxCell id="APem-zlBC7yvItlj1Ssv-28" value="" style="endArrow=none;html=1;rounded=0;exitX=1;exitY=0.5;exitDx=0;exitDy=0;exitPerimeter=0;entryX=0;entryY=0.5;entryDx=0;entryDy=0;" parent="1" source="APem-zlBC7yvItlj1Ssv-4" target="APem-zlBC7yvItlj1Ssv-15" edge="1">
          <mxGeometry width="50" height="50" relative="1" as="geometry">
            <mxPoint x="-160" y="-250" as="sourcePoint" />
            <mxPoint x="-130" y="-250" as="targetPoint" />
            <Array as="points" />
          </mxGeometry>
        </mxCell>
        <mxCell id="APem-zlBC7yvItlj1Ssv-29" style="edgeStyle=orthogonalEdgeStyle;rounded=0;orthogonalLoop=1;jettySize=auto;html=1;entryX=0.411;entryY=-0.022;entryDx=0;entryDy=0;entryPerimeter=0;" parent="1" source="i33cDD-x6CmDFARpjJHK-12" target="APem-zlBC7yvItlj1Ssv-4" edge="1">
          <mxGeometry relative="1" as="geometry" />
        </mxCell>
        <mxCell id="APem-zlBC7yvItlj1Ssv-31" value="&lt;b&gt;бригадир&lt;/b&gt;" style="ellipse;whiteSpace=wrap;html=1;fillColor=#fff2cc;strokeColor=#d6b656;" parent="1" vertex="1">
          <mxGeometry x="40" y="495" width="70" height="60" as="geometry" />
        </mxCell>
        <mxCell id="APem-zlBC7yvItlj1Ssv-33" value="&lt;b&gt;менеджер&lt;/b&gt;" style="ellipse;whiteSpace=wrap;html=1;fillColor=#fff2cc;strokeColor=#d6b656;" parent="1" vertex="1">
          <mxGeometry x="-350" y="810" width="70" height="60" as="geometry" />
        </mxCell>
        <mxCell id="APem-zlBC7yvItlj1Ssv-35" style="edgeStyle=orthogonalEdgeStyle;rounded=0;orthogonalLoop=1;jettySize=auto;html=1;exitX=0.5;exitY=1;exitDx=0;exitDy=0;" parent="1" edge="1">
          <mxGeometry relative="1" as="geometry">
            <mxPoint x="1025" y="210" as="sourcePoint" />
            <mxPoint x="1025" y="210" as="targetPoint" />
          </mxGeometry>
        </mxCell>
        <mxCell id="APem-zlBC7yvItlj1Ssv-44" style="edgeStyle=orthogonalEdgeStyle;rounded=0;orthogonalLoop=1;jettySize=auto;html=1;exitX=0.5;exitY=1;exitDx=0;exitDy=0;entryX=0.5;entryY=0;entryDx=0;entryDy=0;" parent="1" source="APem-zlBC7yvItlj1Ssv-37" target="APem-zlBC7yvItlj1Ssv-43" edge="1">
          <mxGeometry relative="1" as="geometry" />
        </mxCell>
        <mxCell id="APem-zlBC7yvItlj1Ssv-37" value="&amp;nbsp;требуется дозаказ инвентаря" style="shape=hexagon;perimeter=hexagonPerimeter2;whiteSpace=wrap;html=1;fixedSize=1;strokeColor=#9673a6;fillColor=#e1d5e7;fontStyle=1" parent="1" vertex="1">
          <mxGeometry x="-380" width="120" height="80" as="geometry" />
        </mxCell>
        <mxCell id="BPG9rarDS-CA3mD9ri3A-4" style="edgeStyle=orthogonalEdgeStyle;rounded=0;orthogonalLoop=1;jettySize=auto;html=1;entryX=0.5;entryY=0;entryDx=0;entryDy=0;" parent="1" source="APem-zlBC7yvItlj1Ssv-38" target="BPG9rarDS-CA3mD9ri3A-2" edge="1">
          <mxGeometry relative="1" as="geometry" />
        </mxCell>
        <mxCell id="APem-zlBC7yvItlj1Ssv-38" value="&amp;nbsp;не требуется заказ инвентаря" style="shape=hexagon;perimeter=hexagonPerimeter2;whiteSpace=wrap;html=1;fixedSize=1;strokeColor=#9673a6;fillColor=#e1d5e7;fontStyle=1" parent="1" vertex="1">
          <mxGeometry x="-130" width="120" height="80" as="geometry" />
        </mxCell>
        <mxCell id="APem-zlBC7yvItlj1Ssv-41" style="edgeStyle=orthogonalEdgeStyle;rounded=0;orthogonalLoop=1;jettySize=auto;html=1;exitX=1;exitY=0.5;exitDx=0;exitDy=0;entryX=0.5;entryY=0;entryDx=0;entryDy=0;" parent="1" source="APem-zlBC7yvItlj1Ssv-39" target="APem-zlBC7yvItlj1Ssv-38" edge="1">
          <mxGeometry relative="1" as="geometry" />
        </mxCell>
        <mxCell id="APem-zlBC7yvItlj1Ssv-42" style="edgeStyle=orthogonalEdgeStyle;rounded=0;orthogonalLoop=1;jettySize=auto;html=1;exitX=0;exitY=0.5;exitDx=0;exitDy=0;entryX=0.417;entryY=0;entryDx=0;entryDy=0;entryPerimeter=0;" parent="1" source="APem-zlBC7yvItlj1Ssv-39" target="APem-zlBC7yvItlj1Ssv-37" edge="1">
          <mxGeometry relative="1" as="geometry">
            <mxPoint x="-320" y="-10" as="targetPoint" />
          </mxGeometry>
        </mxCell>
        <mxCell id="APem-zlBC7yvItlj1Ssv-39" value="&lt;span style=&quot;color: rgba(0, 0, 0, 0); font-family: monospace; font-size: 0px; text-align: start; background-color: rgb(251, 251, 251);&quot;&gt;%3CmxGraphModel%3E%3Croot%3E%3CmxCell%20id%3D%220%22%2F%3E%3CmxCell%20id%3D%221%22%20parent%3D%220%22%2F%3E%3CmxCell%20id%3D%222%22%20value%3D%22%D0%B7%D0%B0%D1%8F%D0%B2%D0%BA%D0%B0%20%D0%BF%D0%BE%D1%81%D1%82%D1%83%D0%BF%D0%B8%D0%BB%D0%B0%22%20style%3D%22shape%3Dhexagon%3Bperimeter%3DhexagonPerimeter2%3BwhiteSpace%3Dwrap%3Bhtml%3D1%3BfixedSize%3D1%3BstrokeColor%3D%239673a6%3BfillColor%3D%23e1d5e7%3B%22%20vertex%3D%221%22%20parent%3D%221%22%3E%3CmxGeometry%20x%3D%22490%22%20y%3D%22-1010%22%20width%3D%22120%22%20height%3D%2280%22%20as%3D%22geometry%22%2F%3E%3C%2FmxCell%3E%3C%2Froot%3E%3C%2FmxGraphModel%3E&lt;/span&gt;" style="shape=mxgraph.bpmn.shape;html=1;verticalLabelPosition=bottom;labelBackgroundColor=#ffffff;verticalAlign=top;align=center;perimeter=rhombusPerimeter;background=gateway;outlineConnect=0;outline=none;symbol=exclusiveGw;" parent="1" vertex="1">
          <mxGeometry x="-215" y="-70" width="55" height="50" as="geometry" />
        </mxCell>
        <mxCell id="APem-zlBC7yvItlj1Ssv-53" style="edgeStyle=orthogonalEdgeStyle;rounded=0;orthogonalLoop=1;jettySize=auto;html=1;" parent="1" source="APem-zlBC7yvItlj1Ssv-43" edge="1">
          <mxGeometry relative="1" as="geometry">
            <mxPoint x="-320" y="250" as="targetPoint" />
          </mxGeometry>
        </mxCell>
        <mxCell id="APem-zlBC7yvItlj1Ssv-43" value="&lt;b&gt;отправить заявку в отдел закупа&lt;/b&gt;" style="rounded=1;whiteSpace=wrap;html=1;strokeColor=#82b366;fillColor=#d5e8d4;" parent="1" vertex="1">
          <mxGeometry x="-380" y="140" width="120" height="50" as="geometry" />
        </mxCell>
        <mxCell id="APem-zlBC7yvItlj1Ssv-46" value="бригадир" style="ellipse;whiteSpace=wrap;html=1;fillColor=#fff2cc;strokeColor=#d6b656;fontStyle=1" parent="1" vertex="1">
          <mxGeometry x="-487.5" y="140" width="70" height="60" as="geometry" />
        </mxCell>
        <mxCell id="APem-zlBC7yvItlj1Ssv-47" value="" style="endArrow=none;html=1;rounded=0;" parent="1" edge="1">
          <mxGeometry width="50" height="50" relative="1" as="geometry">
            <mxPoint x="-400" y="174.17" as="sourcePoint" />
            <mxPoint x="-380" y="174.17" as="targetPoint" />
            <Array as="points">
              <mxPoint x="-420" y="174.17" />
            </Array>
          </mxGeometry>
        </mxCell>
        <mxCell id="APem-zlBC7yvItlj1Ssv-52" style="edgeStyle=orthogonalEdgeStyle;rounded=0;orthogonalLoop=1;jettySize=auto;html=1;exitX=0;exitY=0;exitDx=67.5;exitDy=33;exitPerimeter=0;entryX=0.25;entryY=0;entryDx=0;entryDy=0;" parent="1" source="APem-zlBC7yvItlj1Ssv-48" target="APem-zlBC7yvItlj1Ssv-43" edge="1">
          <mxGeometry relative="1" as="geometry">
            <Array as="points">
              <mxPoint x="-417" y="105" />
              <mxPoint x="-350" y="105" />
            </Array>
          </mxGeometry>
        </mxCell>
        <mxCell id="APem-zlBC7yvItlj1Ssv-48" value="&lt;b&gt;завка на материалы&lt;/b&gt;" style="shape=note;whiteSpace=wrap;html=1;backgroundOutline=1;darkOpacity=0.05;size=16;fillColor=#b0e3e6;strokeColor=#0e8088;align=left;" parent="1" vertex="1">
          <mxGeometry x="-490" y="80" width="72.5" height="50" as="geometry" />
        </mxCell>
        <mxCell id="BPG9rarDS-CA3mD9ri3A-1" style="edgeStyle=orthogonalEdgeStyle;rounded=0;orthogonalLoop=1;jettySize=auto;html=1;entryX=0;entryY=0.5;entryDx=0;entryDy=0;" parent="1" source="APem-zlBC7yvItlj1Ssv-55" target="BPG9rarDS-CA3mD9ri3A-2" edge="1">
          <mxGeometry relative="1" as="geometry">
            <mxPoint x="-150" y="290" as="targetPoint" />
          </mxGeometry>
        </mxCell>
        <mxCell id="APem-zlBC7yvItlj1Ssv-55" value="&lt;b&gt;получен&lt;br&gt;&amp;nbsp;инвентарь&lt;/b&gt;" style="shape=hexagon;perimeter=hexagonPerimeter2;whiteSpace=wrap;html=1;fixedSize=1;strokeColor=#9673a6;fillColor=#e1d5e7;" parent="1" vertex="1">
          <mxGeometry x="-380" y="250" width="120" height="80" as="geometry" />
        </mxCell>
        <mxCell id="BPG9rarDS-CA3mD9ri3A-25" style="edgeStyle=orthogonalEdgeStyle;rounded=0;orthogonalLoop=1;jettySize=auto;html=1;exitX=0.5;exitY=1;exitDx=0;exitDy=0;" parent="1" source="BPG9rarDS-CA3mD9ri3A-2" edge="1">
          <mxGeometry relative="1" as="geometry">
            <mxPoint x="-70" y="370" as="targetPoint" />
          </mxGeometry>
        </mxCell>
        <mxCell id="BPG9rarDS-CA3mD9ri3A-2" value="&lt;b&gt;подтвердить и отпрпавить заявку на водителя&lt;/b&gt;" style="rounded=1;whiteSpace=wrap;html=1;strokeColor=#82b366;fillColor=#d5e8d4;" parent="1" vertex="1">
          <mxGeometry x="-130" y="260" width="120" height="60" as="geometry" />
        </mxCell>
        <mxCell id="BPG9rarDS-CA3mD9ri3A-14" style="edgeStyle=orthogonalEdgeStyle;rounded=0;orthogonalLoop=1;jettySize=auto;html=1;entryX=0.5;entryY=0;entryDx=0;entryDy=0;" parent="1" source="BPG9rarDS-CA3mD9ri3A-6" target="BPG9rarDS-CA3mD9ri3A-13" edge="1">
          <mxGeometry relative="1" as="geometry" />
        </mxCell>
        <mxCell id="BPG9rarDS-CA3mD9ri3A-6" value="&lt;b&gt;исполнение&lt;br&gt;&amp;nbsp;заказа&lt;/b&gt;" style="shape=hexagon;perimeter=hexagonPerimeter2;whiteSpace=wrap;html=1;fixedSize=1;strokeColor=#9673a6;fillColor=#e1d5e7;" parent="1" vertex="1">
          <mxGeometry x="-130" y="370" width="120" height="80" as="geometry" />
        </mxCell>
        <mxCell id="BPG9rarDS-CA3mD9ri3A-7" value="бригадир" style="ellipse;whiteSpace=wrap;html=1;fillColor=#fff2cc;strokeColor=#d6b656;fontStyle=1" parent="1" vertex="1">
          <mxGeometry x="50" y="260" width="70" height="60" as="geometry" />
        </mxCell>
        <mxCell id="BPG9rarDS-CA3mD9ri3A-9" value="" style="endArrow=none;html=1;rounded=0;entryX=0;entryY=0.5;entryDx=0;entryDy=0;" parent="1" target="BPG9rarDS-CA3mD9ri3A-7" edge="1">
          <mxGeometry width="50" height="50" relative="1" as="geometry">
            <mxPoint x="-10" y="290" as="sourcePoint" />
            <mxPoint x="20" y="270" as="targetPoint" />
          </mxGeometry>
        </mxCell>
        <mxCell id="BPG9rarDS-CA3mD9ri3A-20" style="edgeStyle=orthogonalEdgeStyle;rounded=0;orthogonalLoop=1;jettySize=auto;html=1;" parent="1" source="BPG9rarDS-CA3mD9ri3A-13" edge="1">
          <mxGeometry relative="1" as="geometry">
            <mxPoint x="-70" y="600" as="targetPoint" />
          </mxGeometry>
        </mxCell>
        <mxCell id="BPG9rarDS-CA3mD9ri3A-13" value="&lt;b&gt;уборка завершена&lt;/b&gt;" style="rounded=1;whiteSpace=wrap;html=1;strokeColor=#82b366;fillColor=#d5e8d4;" parent="1" vertex="1">
          <mxGeometry x="-130" y="495" width="120" height="60" as="geometry" />
        </mxCell>
        <mxCell id="BPG9rarDS-CA3mD9ri3A-15" value="" style="endArrow=none;html=1;rounded=0;exitX=1;exitY=0.5;exitDx=0;exitDy=0;" parent="1" source="BPG9rarDS-CA3mD9ri3A-13" edge="1">
          <mxGeometry width="50" height="50" relative="1" as="geometry">
            <mxPoint x="-10" y="520" as="sourcePoint" />
            <mxPoint x="40" y="524.17" as="targetPoint" />
          </mxGeometry>
        </mxCell>
        <mxCell id="BPG9rarDS-CA3mD9ri3A-27" style="edgeStyle=orthogonalEdgeStyle;rounded=0;orthogonalLoop=1;jettySize=auto;html=1;" parent="1" source="BPG9rarDS-CA3mD9ri3A-18" edge="1">
          <mxGeometry relative="1" as="geometry">
            <mxPoint x="-170" y="810" as="targetPoint" />
          </mxGeometry>
        </mxCell>
        <mxCell id="BPG9rarDS-CA3mD9ri3A-18" value="клиент ушел&lt;div&gt;&amp;nbsp;из дома&lt;/div&gt;" style="shape=hexagon;perimeter=hexagonPerimeter2;whiteSpace=wrap;html=1;fixedSize=1;strokeColor=#9673a6;fillColor=#e1d5e7;fontStyle=1" parent="1" vertex="1">
          <mxGeometry x="-230" y="690" width="120" height="80" as="geometry" />
        </mxCell>
        <mxCell id="BPG9rarDS-CA3mD9ri3A-29" style="edgeStyle=orthogonalEdgeStyle;rounded=0;orthogonalLoop=1;jettySize=auto;html=1;" parent="1" source="BPG9rarDS-CA3mD9ri3A-19" edge="1" target="Kjo5d8-wIT8jNFyKFBqK-12">
          <mxGeometry relative="1" as="geometry">
            <mxPoint x="50" y="810" as="targetPoint" />
            <Array as="points">
              <mxPoint x="48" y="780" />
              <mxPoint x="48" y="780" />
            </Array>
          </mxGeometry>
        </mxCell>
        <mxCell id="BPG9rarDS-CA3mD9ri3A-19" value="клиент остался&lt;div&gt;&amp;nbsp;дома&lt;/div&gt;" style="shape=hexagon;perimeter=hexagonPerimeter2;whiteSpace=wrap;html=1;fixedSize=1;strokeColor=#9673a6;fillColor=#e1d5e7;fontStyle=1" parent="1" vertex="1">
          <mxGeometry x="-10" y="690" width="120" height="80" as="geometry" />
        </mxCell>
        <mxCell id="BPG9rarDS-CA3mD9ri3A-22" style="edgeStyle=orthogonalEdgeStyle;rounded=0;orthogonalLoop=1;jettySize=auto;html=1;entryX=0.5;entryY=0;entryDx=0;entryDy=0;" parent="1" source="BPG9rarDS-CA3mD9ri3A-21" target="BPG9rarDS-CA3mD9ri3A-19" edge="1">
          <mxGeometry relative="1" as="geometry">
            <Array as="points">
              <mxPoint x="50" y="625" />
            </Array>
          </mxGeometry>
        </mxCell>
        <mxCell id="GPQHW2iuNRQqBIiZ217G-3" style="edgeStyle=orthogonalEdgeStyle;rounded=0;orthogonalLoop=1;jettySize=auto;html=1;entryX=0.5;entryY=0;entryDx=0;entryDy=0;" parent="1" source="BPG9rarDS-CA3mD9ri3A-21" target="BPG9rarDS-CA3mD9ri3A-18" edge="1">
          <mxGeometry relative="1" as="geometry" />
        </mxCell>
        <mxCell id="BPG9rarDS-CA3mD9ri3A-21" value="" style="shape=mxgraph.bpmn.shape;html=1;verticalLabelPosition=bottom;labelBackgroundColor=#ffffff;verticalAlign=top;align=center;perimeter=rhombusPerimeter;background=gateway;outlineConnect=0;outline=none;symbol=exclusiveGw;" parent="1" vertex="1">
          <mxGeometry x="-97.5" y="600" width="55" height="50" as="geometry" />
        </mxCell>
        <mxCell id="BPG9rarDS-CA3mD9ri3A-31" style="edgeStyle=orthogonalEdgeStyle;rounded=0;orthogonalLoop=1;jettySize=auto;html=1;" parent="1" source="BPG9rarDS-CA3mD9ri3A-28" edge="1">
          <mxGeometry relative="1" as="geometry">
            <mxPoint x="-160" y="920" as="targetPoint" />
          </mxGeometry>
        </mxCell>
        <mxCell id="BPG9rarDS-CA3mD9ri3A-28" value="&lt;b&gt;отправка смс за 30 мин. до завершения уборки&lt;/b&gt;" style="rounded=1;whiteSpace=wrap;html=1;strokeColor=#82b366;fillColor=#d5e8d4;" parent="1" vertex="1">
          <mxGeometry x="-220" y="810" width="120" height="60" as="geometry" />
        </mxCell>
        <mxCell id="BPG9rarDS-CA3mD9ri3A-32" value="" style="endArrow=none;html=1;rounded=0;" parent="1" edge="1">
          <mxGeometry width="50" height="50" relative="1" as="geometry">
            <mxPoint x="-280" y="840" as="sourcePoint" />
            <mxPoint x="-220" y="840" as="targetPoint" />
          </mxGeometry>
        </mxCell>
        <mxCell id="GPQHW2iuNRQqBIiZ217G-4" style="edgeStyle=orthogonalEdgeStyle;rounded=0;orthogonalLoop=1;jettySize=auto;html=1;entryX=0.5;entryY=1;entryDx=0;entryDy=0;" parent="1" source="GPQHW2iuNRQqBIiZ217G-1" target="Kjo5d8-wIT8jNFyKFBqK-12" edge="1">
          <mxGeometry relative="1" as="geometry">
            <mxPoint x="50" y="870" as="targetPoint" />
          </mxGeometry>
        </mxCell>
        <mxCell id="GPQHW2iuNRQqBIiZ217G-1" value="клиент пришёл" style="shape=hexagon;perimeter=hexagonPerimeter2;whiteSpace=wrap;html=1;fixedSize=1;strokeColor=#9673a6;fillColor=#e1d5e7;fontStyle=1" parent="1" vertex="1">
          <mxGeometry x="-220" y="920" width="120" height="80" as="geometry" />
        </mxCell>
        <mxCell id="Kjo5d8-wIT8jNFyKFBqK-14" style="edgeStyle=orthogonalEdgeStyle;rounded=0;orthogonalLoop=1;jettySize=auto;html=1;" edge="1" parent="1" source="Kjo5d8-wIT8jNFyKFBqK-12">
          <mxGeometry relative="1" as="geometry">
            <mxPoint x="120" y="832.5" as="targetPoint" />
          </mxGeometry>
        </mxCell>
        <mxCell id="Kjo5d8-wIT8jNFyKFBqK-12" value="" style="shape=mxgraph.bpmn.shape;html=1;verticalLabelPosition=bottom;labelBackgroundColor=#ffffff;verticalAlign=top;align=center;perimeter=rhombusPerimeter;background=gateway;outlineConnect=0;outline=standard;symbol=general;" vertex="1" parent="1">
          <mxGeometry x="25" y="815" width="45" height="35" as="geometry" />
        </mxCell>
        <mxCell id="Kjo5d8-wIT8jNFyKFBqK-26" value="" style="group" vertex="1" connectable="0" parent="1">
          <mxGeometry x="120" y="790" width="430" height="340" as="geometry" />
        </mxCell>
        <mxCell id="Kjo5d8-wIT8jNFyKFBqK-15" value="&lt;b&gt;клиент&lt;/b&gt;" style="ellipse;whiteSpace=wrap;html=1;fillColor=#fff2cc;strokeColor=#d6b656;" vertex="1" parent="Kjo5d8-wIT8jNFyKFBqK-26">
          <mxGeometry x="70" y="120" width="70" height="60" as="geometry" />
        </mxCell>
        <mxCell id="Kjo5d8-wIT8jNFyKFBqK-16" style="edgeStyle=orthogonalEdgeStyle;rounded=0;orthogonalLoop=1;jettySize=auto;html=1;entryX=0;entryY=0.5;entryDx=0;entryDy=0;" edge="1" parent="Kjo5d8-wIT8jNFyKFBqK-26" source="Kjo5d8-wIT8jNFyKFBqK-17" target="Kjo5d8-wIT8jNFyKFBqK-19">
          <mxGeometry relative="1" as="geometry" />
        </mxCell>
        <mxCell id="Kjo5d8-wIT8jNFyKFBqK-17" value="&lt;b&gt;прием работы и&amp;nbsp; оплата&amp;nbsp;&lt;/b&gt;" style="rounded=1;whiteSpace=wrap;html=1;strokeColor=#82b366;fillColor=#d5e8d4;" vertex="1" parent="Kjo5d8-wIT8jNFyKFBqK-26">
          <mxGeometry y="10" width="120" height="60" as="geometry" />
        </mxCell>
        <mxCell id="Kjo5d8-wIT8jNFyKFBqK-18" style="edgeStyle=orthogonalEdgeStyle;rounded=0;orthogonalLoop=1;jettySize=auto;html=1;" edge="1" parent="Kjo5d8-wIT8jNFyKFBqK-26" source="Kjo5d8-wIT8jNFyKFBqK-19">
          <mxGeometry relative="1" as="geometry">
            <mxPoint x="250" y="140" as="targetPoint" />
          </mxGeometry>
        </mxCell>
        <mxCell id="Kjo5d8-wIT8jNFyKFBqK-19" value="&lt;b&gt;оплата&amp;nbsp;&lt;/b&gt;&lt;div&gt;&lt;b&gt;проведена&amp;nbsp;&lt;/b&gt;&lt;/div&gt;" style="shape=hexagon;perimeter=hexagonPerimeter2;whiteSpace=wrap;html=1;fixedSize=1;strokeColor=#9673a6;fillColor=#e1d5e7;" vertex="1" parent="Kjo5d8-wIT8jNFyKFBqK-26">
          <mxGeometry x="190" width="120" height="80" as="geometry" />
        </mxCell>
        <mxCell id="Kjo5d8-wIT8jNFyKFBqK-20" style="edgeStyle=orthogonalEdgeStyle;rounded=0;orthogonalLoop=1;jettySize=auto;html=1;" edge="1" parent="Kjo5d8-wIT8jNFyKFBqK-26" source="Kjo5d8-wIT8jNFyKFBqK-21">
          <mxGeometry relative="1" as="geometry">
            <mxPoint x="250" y="260" as="targetPoint" />
          </mxGeometry>
        </mxCell>
        <mxCell id="Kjo5d8-wIT8jNFyKFBqK-21" value="&lt;b&gt;установить статус заявки выполнено&lt;/b&gt;" style="rounded=1;whiteSpace=wrap;html=1;strokeColor=#82b366;fillColor=#d5e8d4;" vertex="1" parent="Kjo5d8-wIT8jNFyKFBqK-26">
          <mxGeometry x="190" y="140" width="120" height="60" as="geometry" />
        </mxCell>
        <mxCell id="Kjo5d8-wIT8jNFyKFBqK-22" value="&lt;b&gt;статус&lt;/b&gt;&lt;div&gt;&lt;b&gt;&amp;nbsp;установлен&lt;/b&gt;&lt;/div&gt;" style="shape=hexagon;perimeter=hexagonPerimeter2;whiteSpace=wrap;html=1;fixedSize=1;strokeColor=#9673a6;fillColor=#e1d5e7;" vertex="1" parent="Kjo5d8-wIT8jNFyKFBqK-26">
          <mxGeometry x="190" y="260" width="120" height="80" as="geometry" />
        </mxCell>
        <mxCell id="Kjo5d8-wIT8jNFyKFBqK-23" value="&lt;b&gt;бригадир&lt;/b&gt;" style="ellipse;whiteSpace=wrap;html=1;fillColor=#fff2cc;strokeColor=#d6b656;" vertex="1" parent="Kjo5d8-wIT8jNFyKFBqK-26">
          <mxGeometry x="360" y="140" width="70" height="60" as="geometry" />
        </mxCell>
        <mxCell id="Kjo5d8-wIT8jNFyKFBqK-24" value="" style="endArrow=none;html=1;rounded=0;entryX=0;entryY=0.5;entryDx=0;entryDy=0;exitX=1;exitY=0.5;exitDx=0;exitDy=0;exitPerimeter=0;" edge="1" parent="Kjo5d8-wIT8jNFyKFBqK-26" source="Kjo5d8-wIT8jNFyKFBqK-21" target="Kjo5d8-wIT8jNFyKFBqK-23">
          <mxGeometry width="50" height="50" relative="1" as="geometry">
            <mxPoint x="320" y="160" as="sourcePoint" />
            <mxPoint x="340" y="160" as="targetPoint" />
          </mxGeometry>
        </mxCell>
        <mxCell id="Kjo5d8-wIT8jNFyKFBqK-25" value="" style="endArrow=none;html=1;rounded=0;" edge="1" parent="Kjo5d8-wIT8jNFyKFBqK-26">
          <mxGeometry width="50" height="50" relative="1" as="geometry">
            <mxPoint x="98" y="120" as="sourcePoint" />
            <mxPoint x="97.5" y="70" as="targetPoint" />
          </mxGeometry>
        </mxCell>
      </root>
    </mxGraphModel>
  </diagram>
  <diagram name="пример по EPC" id="049beu1rYcEwdPThTsNf">
    <mxGraphModel dx="3135" dy="1013" grid="1" gridSize="10" guides="1" tooltips="1" connect="1" arrows="1" fold="1" page="1" pageScale="1" pageWidth="827" pageHeight="1169" math="0" shadow="0">
      <root>
        <mxCell id="0" />
        <mxCell id="1" parent="0" />
        <mxCell id="fv5nKJb4bxpMkx3xmHV2-1" value="" style="rounded=1;whiteSpace=wrap;html=1;fontSize=16;fillColor=none;dashed=1;dashPattern=1 4;" parent="1" vertex="1">
          <mxGeometry x="-1630" y="160" width="300" height="930" as="geometry" />
        </mxCell>
        <mxCell id="fv5nKJb4bxpMkx3xmHV2-2" value="" style="group" parent="1" vertex="1" connectable="0">
          <mxGeometry x="-1580" y="220" width="180" height="90" as="geometry" />
        </mxCell>
        <mxCell id="fv5nKJb4bxpMkx3xmHV2-3" value="" style="verticalLabelPosition=bottom;verticalAlign=top;html=1;shape=hexagon;perimeter=hexagonPerimeter2;arcSize=6;size=0.27;fillColor=#e1d5e7;strokeColor=#9673a6;" parent="fv5nKJb4bxpMkx3xmHV2-2" vertex="1">
          <mxGeometry width="180" height="90" as="geometry" />
        </mxCell>
        <mxCell id="fv5nKJb4bxpMkx3xmHV2-4" value="&lt;font style=&quot;font-size: 16px&quot;&gt;Событие&lt;/font&gt;" style="text;html=1;strokeColor=none;fillColor=none;align=center;verticalAlign=middle;whiteSpace=wrap;rounded=0;" parent="fv5nKJb4bxpMkx3xmHV2-2" vertex="1">
          <mxGeometry x="40" y="17.5" width="100" height="55" as="geometry" />
        </mxCell>
        <mxCell id="fv5nKJb4bxpMkx3xmHV2-5" value="" style="group" parent="1" vertex="1" connectable="0">
          <mxGeometry x="-1570" y="340" width="160" height="80" as="geometry" />
        </mxCell>
        <mxCell id="fv5nKJb4bxpMkx3xmHV2-6" value="" style="rounded=1;whiteSpace=wrap;html=1;fillColor=#d5e8d4;strokeColor=#82b366;" parent="fv5nKJb4bxpMkx3xmHV2-5" vertex="1">
          <mxGeometry width="160" height="80" as="geometry" />
        </mxCell>
        <mxCell id="fv5nKJb4bxpMkx3xmHV2-7" value="&lt;font style=&quot;font-size: 16px&quot;&gt;Функция&lt;/font&gt;" style="text;html=1;strokeColor=none;fillColor=none;align=center;verticalAlign=middle;whiteSpace=wrap;rounded=0;" parent="fv5nKJb4bxpMkx3xmHV2-5" vertex="1">
          <mxGeometry x="30" y="12.5" width="100" height="55" as="geometry" />
        </mxCell>
        <mxCell id="fv5nKJb4bxpMkx3xmHV2-8" value="" style="group" parent="1" vertex="1" connectable="0">
          <mxGeometry x="-1560" y="570" width="140" height="85" as="geometry" />
        </mxCell>
        <mxCell id="fv5nKJb4bxpMkx3xmHV2-9" value="" style="ellipse;whiteSpace=wrap;html=1;fillColor=#fff2cc;strokeColor=#d6b656;" parent="fv5nKJb4bxpMkx3xmHV2-8" vertex="1">
          <mxGeometry width="140" height="85" as="geometry" />
        </mxCell>
        <mxCell id="fv5nKJb4bxpMkx3xmHV2-10" value="&lt;font style=&quot;font-size: 16px&quot;&gt;Исполнитель&lt;br&gt;&lt;/font&gt;" style="text;html=1;strokeColor=none;fillColor=none;align=center;verticalAlign=middle;whiteSpace=wrap;rounded=0;" parent="fv5nKJb4bxpMkx3xmHV2-8" vertex="1">
          <mxGeometry x="20" y="15" width="100" height="55" as="geometry" />
        </mxCell>
        <mxCell id="fv5nKJb4bxpMkx3xmHV2-11" value="" style="group" parent="1" vertex="1" connectable="0">
          <mxGeometry x="-1570" y="450" width="160" height="90" as="geometry" />
        </mxCell>
        <mxCell id="fv5nKJb4bxpMkx3xmHV2-12" value="" style="verticalLabelPosition=bottom;verticalAlign=top;html=1;shape=card;whiteSpace=wrap;size=20;arcSize=12;fillColor=#dae8fc;strokeColor=#6c8ebf;" parent="fv5nKJb4bxpMkx3xmHV2-11" vertex="1">
          <mxGeometry width="160" height="90" as="geometry" />
        </mxCell>
        <mxCell id="fv5nKJb4bxpMkx3xmHV2-13" value="Электронный документ" style="text;html=1;strokeColor=none;fillColor=none;align=center;verticalAlign=middle;whiteSpace=wrap;rounded=0;fontSize=16;" parent="fv5nKJb4bxpMkx3xmHV2-11" vertex="1">
          <mxGeometry x="5.7142857142857135" y="16.875" width="148.57142857142856" height="56.25" as="geometry" />
        </mxCell>
        <mxCell id="fv5nKJb4bxpMkx3xmHV2-14" value="" style="shape=mxgraph.bpmn.shape;html=1;verticalLabelPosition=bottom;labelBackgroundColor=#ffffff;verticalAlign=top;align=center;perimeter=rhombusPerimeter;background=gateway;outlineConnect=0;outline=standard;symbol=general;" parent="1" vertex="1">
          <mxGeometry x="-1450" y="682.5" width="50" height="50" as="geometry" />
        </mxCell>
        <mxCell id="fv5nKJb4bxpMkx3xmHV2-15" value="И/ИЛИ" style="text;html=1;strokeColor=none;fillColor=none;align=center;verticalAlign=middle;whiteSpace=wrap;rounded=0;fontSize=16;" parent="1" vertex="1">
          <mxGeometry x="-1580" y="690" width="60" height="35" as="geometry" />
        </mxCell>
        <mxCell id="fv5nKJb4bxpMkx3xmHV2-16" value="" style="shape=mxgraph.bpmn.shape;html=1;verticalLabelPosition=bottom;labelBackgroundColor=#ffffff;verticalAlign=top;align=center;perimeter=rhombusPerimeter;background=gateway;outlineConnect=0;outline=none;symbol=exclusiveGw;" parent="1" vertex="1">
          <mxGeometry x="-1450" y="767.5" width="50" height="50" as="geometry" />
        </mxCell>
        <mxCell id="fv5nKJb4bxpMkx3xmHV2-17" value="Исключающее ИЛИ" style="text;html=1;strokeColor=none;fillColor=none;align=left;verticalAlign=middle;whiteSpace=wrap;rounded=0;fontSize=16;" parent="1" vertex="1">
          <mxGeometry x="-1580" y="775" width="120" height="35" as="geometry" />
        </mxCell>
        <mxCell id="fv5nKJb4bxpMkx3xmHV2-18" value="И" style="text;html=1;strokeColor=none;fillColor=none;align=left;verticalAlign=middle;whiteSpace=wrap;rounded=0;fontSize=16;" parent="1" vertex="1">
          <mxGeometry x="-1580" y="840" width="120" height="35" as="geometry" />
        </mxCell>
        <mxCell id="fv5nKJb4bxpMkx3xmHV2-19" value="" style="points=[[0.25,0.25,0],[0.5,0,0],[0.75,0.25,0],[1,0.5,0],[0.75,0.75,0],[0.5,1,0],[0.25,0.75,0],[0,0.5,0]];shape=mxgraph.bpmn.gateway2;html=1;verticalLabelPosition=bottom;labelBackgroundColor=#ffffff;verticalAlign=top;align=center;perimeter=rhombusPerimeter;outlineConnect=0;outline=none;symbol=none;gwType=parallel;" parent="1" vertex="1">
          <mxGeometry x="-1460" y="840" width="50" height="50" as="geometry" />
        </mxCell>
        <mxCell id="fv5nKJb4bxpMkx3xmHV2-20" value="" style="group" parent="1" vertex="1" connectable="0">
          <mxGeometry x="-1580" y="950" width="150" height="90" as="geometry" />
        </mxCell>
        <mxCell id="fv5nKJb4bxpMkx3xmHV2-21" value="" style="shape=hexagon;perimeter=hexagonPerimeter2;whiteSpace=wrap;html=1;fixedSize=1;" parent="fv5nKJb4bxpMkx3xmHV2-20" vertex="1">
          <mxGeometry x="30" y="10" width="120" height="80" as="geometry" />
        </mxCell>
        <mxCell id="fv5nKJb4bxpMkx3xmHV2-22" value="" style="rounded=0;whiteSpace=wrap;html=1;" parent="fv5nKJb4bxpMkx3xmHV2-20" vertex="1">
          <mxGeometry width="120" height="70" as="geometry" />
        </mxCell>
        <mxCell id="fv5nKJb4bxpMkx3xmHV2-23" value="&lt;span style=&quot;font-size: 16px;&quot;&gt;Интерфейс процесса&lt;/span&gt;" style="text;html=1;strokeColor=none;fillColor=none;align=center;verticalAlign=middle;whiteSpace=wrap;rounded=0;" parent="fv5nKJb4bxpMkx3xmHV2-20" vertex="1">
          <mxGeometry x="10" y="7.5" width="100" height="55" as="geometry" />
        </mxCell>
        <mxCell id="fv5nKJb4bxpMkx3xmHV2-24" value="Оформление заказа" style="shape=step;perimeter=stepPerimeter;whiteSpace=wrap;html=1;fixedSize=1;fillColor=#d5e8d4;strokeColor=#82b366;" parent="1" vertex="1">
          <mxGeometry x="-1600" y="40" width="190" height="80" as="geometry" />
        </mxCell>
        <mxCell id="fv5nKJb4bxpMkx3xmHV2-25" value="Рассмотрение заявки и фомирование КП" style="shape=step;perimeter=stepPerimeter;whiteSpace=wrap;html=1;fixedSize=1;fillColor=#60a917;fontColor=#ffffff;strokeColor=#2D7600;" parent="1" vertex="1">
          <mxGeometry x="-1400" y="40" width="190" height="80" as="geometry" />
        </mxCell>
        <mxCell id="fv5nKJb4bxpMkx3xmHV2-26" value="Оформление договора" style="shape=step;perimeter=stepPerimeter;whiteSpace=wrap;html=1;fixedSize=1;fillColor=#d5e8d4;strokeColor=#82b366;" parent="1" vertex="1">
          <mxGeometry x="-1200" y="40" width="190" height="80" as="geometry" />
        </mxCell>
        <mxCell id="fv5nKJb4bxpMkx3xmHV2-27" value="" style="group" parent="1" vertex="1" connectable="0">
          <mxGeometry x="-900" y="210" width="180" height="90" as="geometry" />
        </mxCell>
        <mxCell id="fv5nKJb4bxpMkx3xmHV2-28" value="" style="verticalLabelPosition=bottom;verticalAlign=top;html=1;shape=hexagon;perimeter=hexagonPerimeter2;arcSize=6;size=0.27;fillColor=#e1d5e7;strokeColor=#9673a6;" parent="fv5nKJb4bxpMkx3xmHV2-27" vertex="1">
          <mxGeometry width="180" height="90" as="geometry" />
        </mxCell>
        <mxCell id="fv5nKJb4bxpMkx3xmHV2-29" value="&lt;font style=&quot;font-size: 16px&quot;&gt;Заявка поступила&lt;/font&gt;" style="text;html=1;strokeColor=none;fillColor=none;align=center;verticalAlign=middle;whiteSpace=wrap;rounded=0;" parent="fv5nKJb4bxpMkx3xmHV2-27" vertex="1">
          <mxGeometry x="40" y="17.5" width="100" height="55" as="geometry" />
        </mxCell>
        <mxCell id="fv5nKJb4bxpMkx3xmHV2-30" value="" style="group" parent="1" vertex="1" connectable="0">
          <mxGeometry x="-890" y="350" width="160" height="80" as="geometry" />
        </mxCell>
        <mxCell id="fv5nKJb4bxpMkx3xmHV2-31" value="" style="rounded=1;whiteSpace=wrap;html=1;fillColor=#d5e8d4;strokeColor=#82b366;" parent="fv5nKJb4bxpMkx3xmHV2-30" vertex="1">
          <mxGeometry width="160" height="80" as="geometry" />
        </mxCell>
        <mxCell id="fv5nKJb4bxpMkx3xmHV2-32" value="&lt;span style=&quot;font-size: 16px;&quot;&gt;Рассмотреть заявку&lt;/span&gt;" style="text;html=1;strokeColor=none;fillColor=none;align=center;verticalAlign=middle;whiteSpace=wrap;rounded=0;" parent="fv5nKJb4bxpMkx3xmHV2-30" vertex="1">
          <mxGeometry x="30" y="12.5" width="100" height="55" as="geometry" />
        </mxCell>
        <mxCell id="fv5nKJb4bxpMkx3xmHV2-33" style="edgeStyle=orthogonalEdgeStyle;rounded=0;orthogonalLoop=1;jettySize=auto;html=1;exitX=0.5;exitY=1;exitDx=0;exitDy=0;entryX=0.5;entryY=0;entryDx=0;entryDy=0;" parent="1" source="fv5nKJb4bxpMkx3xmHV2-28" target="fv5nKJb4bxpMkx3xmHV2-31" edge="1">
          <mxGeometry relative="1" as="geometry" />
        </mxCell>
        <mxCell id="fv5nKJb4bxpMkx3xmHV2-34" value="" style="group" parent="1" vertex="1" connectable="0">
          <mxGeometry x="-1040" y="550" width="180" height="90" as="geometry" />
        </mxCell>
        <mxCell id="fv5nKJb4bxpMkx3xmHV2-35" value="" style="verticalLabelPosition=bottom;verticalAlign=top;html=1;shape=hexagon;perimeter=hexagonPerimeter2;arcSize=6;size=0.27;fillColor=#e1d5e7;strokeColor=#9673a6;" parent="fv5nKJb4bxpMkx3xmHV2-34" vertex="1">
          <mxGeometry width="180" height="90" as="geometry" />
        </mxCell>
        <mxCell id="fv5nKJb4bxpMkx3xmHV2-36" value="&lt;font style=&quot;font-size: 16px&quot;&gt;Поступил спам&lt;/font&gt;" style="text;html=1;strokeColor=none;fillColor=none;align=center;verticalAlign=middle;whiteSpace=wrap;rounded=0;" parent="fv5nKJb4bxpMkx3xmHV2-34" vertex="1">
          <mxGeometry x="40" y="17.5" width="100" height="55" as="geometry" />
        </mxCell>
        <mxCell id="fv5nKJb4bxpMkx3xmHV2-37" value="" style="group" parent="1" vertex="1" connectable="0">
          <mxGeometry x="-760" y="550" width="180" height="90" as="geometry" />
        </mxCell>
        <mxCell id="fv5nKJb4bxpMkx3xmHV2-38" value="" style="verticalLabelPosition=bottom;verticalAlign=top;html=1;shape=hexagon;perimeter=hexagonPerimeter2;arcSize=6;size=0.27;fillColor=#e1d5e7;strokeColor=#9673a6;" parent="fv5nKJb4bxpMkx3xmHV2-37" vertex="1">
          <mxGeometry width="180" height="90" as="geometry" />
        </mxCell>
        <mxCell id="fv5nKJb4bxpMkx3xmHV2-39" value="&lt;font style=&quot;font-size: 16px&quot;&gt;Поступила верная заявка&lt;/font&gt;" style="text;html=1;strokeColor=none;fillColor=none;align=center;verticalAlign=middle;whiteSpace=wrap;rounded=0;" parent="fv5nKJb4bxpMkx3xmHV2-37" vertex="1">
          <mxGeometry x="40" y="17.5" width="100" height="55" as="geometry" />
        </mxCell>
        <mxCell id="fv5nKJb4bxpMkx3xmHV2-42" style="edgeStyle=orthogonalEdgeStyle;rounded=0;orthogonalLoop=1;jettySize=auto;html=1;exitX=0;exitY=0.5;exitDx=0;exitDy=0;entryX=0.5;entryY=0;entryDx=0;entryDy=0;" parent="1" source="fv5nKJb4bxpMkx3xmHV2-40" target="fv5nKJb4bxpMkx3xmHV2-35" edge="1">
          <mxGeometry relative="1" as="geometry" />
        </mxCell>
        <mxCell id="fv5nKJb4bxpMkx3xmHV2-43" style="edgeStyle=orthogonalEdgeStyle;rounded=0;orthogonalLoop=1;jettySize=auto;html=1;exitX=1;exitY=0.5;exitDx=0;exitDy=0;" parent="1" source="fv5nKJb4bxpMkx3xmHV2-40" target="fv5nKJb4bxpMkx3xmHV2-38" edge="1">
          <mxGeometry relative="1" as="geometry" />
        </mxCell>
        <mxCell id="fv5nKJb4bxpMkx3xmHV2-40" value="" style="shape=mxgraph.bpmn.shape;html=1;verticalLabelPosition=bottom;labelBackgroundColor=#ffffff;verticalAlign=top;align=center;perimeter=rhombusPerimeter;background=gateway;outlineConnect=0;outline=none;symbol=exclusiveGw;" parent="1" vertex="1">
          <mxGeometry x="-835" y="480" width="50" height="50" as="geometry" />
        </mxCell>
        <mxCell id="fv5nKJb4bxpMkx3xmHV2-41" style="edgeStyle=orthogonalEdgeStyle;rounded=0;orthogonalLoop=1;jettySize=auto;html=1;exitX=0.5;exitY=1;exitDx=0;exitDy=0;entryX=0.5;entryY=0;entryDx=0;entryDy=0;" parent="1" source="fv5nKJb4bxpMkx3xmHV2-31" target="fv5nKJb4bxpMkx3xmHV2-40" edge="1">
          <mxGeometry relative="1" as="geometry" />
        </mxCell>
        <mxCell id="fv5nKJb4bxpMkx3xmHV2-44" value="" style="group" parent="1" vertex="1" connectable="0">
          <mxGeometry x="-750" y="687.5" width="160" height="80" as="geometry" />
        </mxCell>
        <mxCell id="fv5nKJb4bxpMkx3xmHV2-45" value="" style="rounded=1;whiteSpace=wrap;html=1;fillColor=#d5e8d4;strokeColor=#82b366;" parent="fv5nKJb4bxpMkx3xmHV2-44" vertex="1">
          <mxGeometry width="160" height="80" as="geometry" />
        </mxCell>
        <mxCell id="fv5nKJb4bxpMkx3xmHV2-46" value="&lt;span style=&quot;font-size: 16px;&quot;&gt;Сформировать КП&lt;/span&gt;" style="text;html=1;strokeColor=none;fillColor=none;align=center;verticalAlign=middle;whiteSpace=wrap;rounded=0;" parent="fv5nKJb4bxpMkx3xmHV2-44" vertex="1">
          <mxGeometry x="30" y="12.5" width="100" height="55" as="geometry" />
        </mxCell>
        <mxCell id="fv5nKJb4bxpMkx3xmHV2-47" style="edgeStyle=orthogonalEdgeStyle;rounded=0;orthogonalLoop=1;jettySize=auto;html=1;exitX=0.5;exitY=1;exitDx=0;exitDy=0;entryX=0.5;entryY=0;entryDx=0;entryDy=0;" parent="1" source="fv5nKJb4bxpMkx3xmHV2-38" target="fv5nKJb4bxpMkx3xmHV2-45" edge="1">
          <mxGeometry relative="1" as="geometry" />
        </mxCell>
        <mxCell id="fv5nKJb4bxpMkx3xmHV2-48" value="" style="group" parent="1" vertex="1" connectable="0">
          <mxGeometry x="-760" y="817.5" width="180" height="90" as="geometry" />
        </mxCell>
        <mxCell id="fv5nKJb4bxpMkx3xmHV2-49" value="" style="verticalLabelPosition=bottom;verticalAlign=top;html=1;shape=hexagon;perimeter=hexagonPerimeter2;arcSize=6;size=0.27;fillColor=#e1d5e7;strokeColor=#9673a6;" parent="fv5nKJb4bxpMkx3xmHV2-48" vertex="1">
          <mxGeometry width="180" height="90" as="geometry" />
        </mxCell>
        <mxCell id="fv5nKJb4bxpMkx3xmHV2-50" value="&lt;font style=&quot;font-size: 16px&quot;&gt;Кп сформировано&lt;/font&gt;" style="text;html=1;strokeColor=none;fillColor=none;align=center;verticalAlign=middle;whiteSpace=wrap;rounded=0;" parent="fv5nKJb4bxpMkx3xmHV2-48" vertex="1">
          <mxGeometry x="40" y="17.5" width="100" height="55" as="geometry" />
        </mxCell>
        <mxCell id="fv5nKJb4bxpMkx3xmHV2-51" value="" style="group" parent="1" vertex="1" connectable="0">
          <mxGeometry x="-750" y="955" width="160" height="80" as="geometry" />
        </mxCell>
        <mxCell id="fv5nKJb4bxpMkx3xmHV2-52" value="" style="rounded=1;whiteSpace=wrap;html=1;fillColor=#d5e8d4;strokeColor=#82b366;" parent="fv5nKJb4bxpMkx3xmHV2-51" vertex="1">
          <mxGeometry width="160" height="80" as="geometry" />
        </mxCell>
        <mxCell id="fv5nKJb4bxpMkx3xmHV2-53" value="&lt;span style=&quot;font-size: 16px;&quot;&gt;Направить КП&lt;/span&gt;" style="text;html=1;strokeColor=none;fillColor=none;align=center;verticalAlign=middle;whiteSpace=wrap;rounded=0;" parent="fv5nKJb4bxpMkx3xmHV2-51" vertex="1">
          <mxGeometry x="30" y="12.5" width="100" height="55" as="geometry" />
        </mxCell>
        <mxCell id="fv5nKJb4bxpMkx3xmHV2-54" style="edgeStyle=orthogonalEdgeStyle;rounded=0;orthogonalLoop=1;jettySize=auto;html=1;exitX=0.5;exitY=1;exitDx=0;exitDy=0;entryX=0.5;entryY=0;entryDx=0;entryDy=0;" parent="1" source="fv5nKJb4bxpMkx3xmHV2-45" target="fv5nKJb4bxpMkx3xmHV2-49" edge="1">
          <mxGeometry relative="1" as="geometry" />
        </mxCell>
        <mxCell id="fv5nKJb4bxpMkx3xmHV2-55" style="edgeStyle=orthogonalEdgeStyle;rounded=0;orthogonalLoop=1;jettySize=auto;html=1;exitX=0.5;exitY=1;exitDx=0;exitDy=0;entryX=0.5;entryY=0;entryDx=0;entryDy=0;" parent="1" source="fv5nKJb4bxpMkx3xmHV2-49" target="fv5nKJb4bxpMkx3xmHV2-52" edge="1">
          <mxGeometry relative="1" as="geometry" />
        </mxCell>
        <mxCell id="fv5nKJb4bxpMkx3xmHV2-56" value="" style="group" parent="1" vertex="1" connectable="0">
          <mxGeometry x="-910" y="682" width="80" height="90" as="geometry" />
        </mxCell>
        <mxCell id="fv5nKJb4bxpMkx3xmHV2-57" value="" style="verticalLabelPosition=bottom;verticalAlign=top;html=1;shape=card;whiteSpace=wrap;size=20;arcSize=12;fillColor=#dae8fc;strokeColor=#6c8ebf;" parent="fv5nKJb4bxpMkx3xmHV2-56" vertex="1">
          <mxGeometry width="80" height="90" as="geometry" />
        </mxCell>
        <mxCell id="fv5nKJb4bxpMkx3xmHV2-58" value="КП" style="text;html=1;strokeColor=none;fillColor=none;align=center;verticalAlign=middle;whiteSpace=wrap;rounded=0;fontSize=16;" parent="fv5nKJb4bxpMkx3xmHV2-56" vertex="1">
          <mxGeometry x="5.715324675324675" y="16.875" width="74.28571428571428" height="56.25" as="geometry" />
        </mxCell>
        <mxCell id="fv5nKJb4bxpMkx3xmHV2-61" style="edgeStyle=orthogonalEdgeStyle;rounded=0;orthogonalLoop=1;jettySize=auto;html=1;exitX=0.5;exitY=1;exitDx=0;exitDy=0;exitPerimeter=0;entryX=0.004;entryY=0.355;entryDx=0;entryDy=0;entryPerimeter=0;" parent="1" source="fv5nKJb4bxpMkx3xmHV2-57" target="fv5nKJb4bxpMkx3xmHV2-52" edge="1">
          <mxGeometry relative="1" as="geometry" />
        </mxCell>
        <mxCell id="fv5nKJb4bxpMkx3xmHV2-60" style="edgeStyle=orthogonalEdgeStyle;rounded=0;orthogonalLoop=1;jettySize=auto;html=1;exitX=0;exitY=0.5;exitDx=0;exitDy=0;entryX=1;entryY=0.5;entryDx=0;entryDy=0;" parent="1" source="fv5nKJb4bxpMkx3xmHV2-45" target="fv5nKJb4bxpMkx3xmHV2-58" edge="1">
          <mxGeometry relative="1" as="geometry">
            <mxPoint x="-799.9999999999995" y="720" as="targetPoint" />
          </mxGeometry>
        </mxCell>
        <mxCell id="fv5nKJb4bxpMkx3xmHV2-62" value="" style="group" parent="1" vertex="1" connectable="0">
          <mxGeometry x="-1030" y="345" width="80" height="90" as="geometry" />
        </mxCell>
        <mxCell id="fv5nKJb4bxpMkx3xmHV2-63" value="" style="verticalLabelPosition=bottom;verticalAlign=top;html=1;shape=card;whiteSpace=wrap;size=20;arcSize=12;fillColor=#dae8fc;strokeColor=#6c8ebf;" parent="fv5nKJb4bxpMkx3xmHV2-62" vertex="1">
          <mxGeometry width="80" height="90" as="geometry" />
        </mxCell>
        <mxCell id="fv5nKJb4bxpMkx3xmHV2-64" value="Заявка" style="text;html=1;strokeColor=none;fillColor=none;align=center;verticalAlign=middle;whiteSpace=wrap;rounded=0;fontSize=16;" parent="fv5nKJb4bxpMkx3xmHV2-62" vertex="1">
          <mxGeometry x="5.715324675324675" y="16.875" width="74.28571428571428" height="56.25" as="geometry" />
        </mxCell>
        <mxCell id="fv5nKJb4bxpMkx3xmHV2-65" style="edgeStyle=orthogonalEdgeStyle;rounded=0;orthogonalLoop=1;jettySize=auto;html=1;exitX=1;exitY=0.5;exitDx=0;exitDy=0;" parent="1" source="fv5nKJb4bxpMkx3xmHV2-64" target="fv5nKJb4bxpMkx3xmHV2-31" edge="1">
          <mxGeometry relative="1" as="geometry" />
        </mxCell>
        <mxCell id="fv5nKJb4bxpMkx3xmHV2-66" value="" style="group" parent="1" vertex="1" connectable="0">
          <mxGeometry x="-980" y="1180" width="180" height="90" as="geometry" />
        </mxCell>
        <mxCell id="fv5nKJb4bxpMkx3xmHV2-67" value="" style="verticalLabelPosition=bottom;verticalAlign=top;html=1;shape=hexagon;perimeter=hexagonPerimeter2;arcSize=6;size=0.27;fillColor=#e1d5e7;strokeColor=#9673a6;" parent="fv5nKJb4bxpMkx3xmHV2-66" vertex="1">
          <mxGeometry width="180" height="90" as="geometry" />
        </mxCell>
        <mxCell id="fv5nKJb4bxpMkx3xmHV2-68" value="&lt;font style=&quot;font-size: 16px&quot;&gt;Ответ не поступил&lt;/font&gt;" style="text;html=1;strokeColor=none;fillColor=none;align=center;verticalAlign=middle;whiteSpace=wrap;rounded=0;" parent="fv5nKJb4bxpMkx3xmHV2-66" vertex="1">
          <mxGeometry x="40" y="17.5" width="100" height="55" as="geometry" />
        </mxCell>
        <mxCell id="fv5nKJb4bxpMkx3xmHV2-69" value="" style="group" parent="1" vertex="1" connectable="0">
          <mxGeometry x="-760" y="1180" width="180" height="90" as="geometry" />
        </mxCell>
        <mxCell id="fv5nKJb4bxpMkx3xmHV2-70" value="" style="verticalLabelPosition=bottom;verticalAlign=top;html=1;shape=hexagon;perimeter=hexagonPerimeter2;arcSize=6;size=0.27;fillColor=#e1d5e7;strokeColor=#9673a6;" parent="fv5nKJb4bxpMkx3xmHV2-69" vertex="1">
          <mxGeometry width="180" height="90" as="geometry" />
        </mxCell>
        <mxCell id="fv5nKJb4bxpMkx3xmHV2-71" value="&lt;font style=&quot;font-size: 16px&quot;&gt;Поступил отказ&lt;/font&gt;" style="text;html=1;strokeColor=none;fillColor=none;align=center;verticalAlign=middle;whiteSpace=wrap;rounded=0;" parent="fv5nKJb4bxpMkx3xmHV2-69" vertex="1">
          <mxGeometry x="40" y="17.5" width="100" height="55" as="geometry" />
        </mxCell>
        <mxCell id="fv5nKJb4bxpMkx3xmHV2-72" value="" style="group" parent="1" vertex="1" connectable="0">
          <mxGeometry x="-550" y="1180" width="180" height="90" as="geometry" />
        </mxCell>
        <mxCell id="fv5nKJb4bxpMkx3xmHV2-73" value="" style="verticalLabelPosition=bottom;verticalAlign=top;html=1;shape=hexagon;perimeter=hexagonPerimeter2;arcSize=6;size=0.27;fillColor=#e1d5e7;strokeColor=#9673a6;" parent="fv5nKJb4bxpMkx3xmHV2-72" vertex="1">
          <mxGeometry width="180" height="90" as="geometry" />
        </mxCell>
        <mxCell id="fv5nKJb4bxpMkx3xmHV2-74" value="&lt;font style=&quot;font-size: 16px&quot;&gt;Поступило согласие от клиента&lt;/font&gt;" style="text;html=1;strokeColor=none;fillColor=none;align=center;verticalAlign=middle;whiteSpace=wrap;rounded=0;" parent="fv5nKJb4bxpMkx3xmHV2-72" vertex="1">
          <mxGeometry x="40" y="17.5" width="100" height="55" as="geometry" />
        </mxCell>
        <mxCell id="fv5nKJb4bxpMkx3xmHV2-77" style="edgeStyle=orthogonalEdgeStyle;rounded=0;orthogonalLoop=1;jettySize=auto;html=1;exitX=0.5;exitY=1;exitDx=0;exitDy=0;" parent="1" source="fv5nKJb4bxpMkx3xmHV2-75" target="fv5nKJb4bxpMkx3xmHV2-70" edge="1">
          <mxGeometry relative="1" as="geometry" />
        </mxCell>
        <mxCell id="fv5nKJb4bxpMkx3xmHV2-78" style="edgeStyle=orthogonalEdgeStyle;rounded=0;orthogonalLoop=1;jettySize=auto;html=1;exitX=0;exitY=0.5;exitDx=0;exitDy=0;entryX=0.5;entryY=0;entryDx=0;entryDy=0;" parent="1" source="fv5nKJb4bxpMkx3xmHV2-75" target="fv5nKJb4bxpMkx3xmHV2-67" edge="1">
          <mxGeometry relative="1" as="geometry" />
        </mxCell>
        <mxCell id="fv5nKJb4bxpMkx3xmHV2-79" style="edgeStyle=orthogonalEdgeStyle;rounded=0;orthogonalLoop=1;jettySize=auto;html=1;exitX=1;exitY=0.5;exitDx=0;exitDy=0;entryX=0.5;entryY=0;entryDx=0;entryDy=0;" parent="1" source="fv5nKJb4bxpMkx3xmHV2-75" target="fv5nKJb4bxpMkx3xmHV2-73" edge="1">
          <mxGeometry relative="1" as="geometry" />
        </mxCell>
        <mxCell id="fv5nKJb4bxpMkx3xmHV2-75" value="" style="shape=mxgraph.bpmn.shape;html=1;verticalLabelPosition=bottom;labelBackgroundColor=#ffffff;verticalAlign=top;align=center;perimeter=rhombusPerimeter;background=gateway;outlineConnect=0;outline=none;symbol=exclusiveGw;" parent="1" vertex="1">
          <mxGeometry x="-695" y="1080" width="50" height="50" as="geometry" />
        </mxCell>
        <mxCell id="fv5nKJb4bxpMkx3xmHV2-76" style="edgeStyle=orthogonalEdgeStyle;rounded=0;orthogonalLoop=1;jettySize=auto;html=1;exitX=0.5;exitY=1;exitDx=0;exitDy=0;entryX=0.5;entryY=0;entryDx=0;entryDy=0;" parent="1" source="fv5nKJb4bxpMkx3xmHV2-52" target="fv5nKJb4bxpMkx3xmHV2-75" edge="1">
          <mxGeometry relative="1" as="geometry" />
        </mxCell>
        <mxCell id="fv5nKJb4bxpMkx3xmHV2-80" value="" style="group" parent="1" vertex="1" connectable="0">
          <mxGeometry x="-865" y="1400" width="160" height="80" as="geometry" />
        </mxCell>
        <mxCell id="fv5nKJb4bxpMkx3xmHV2-81" value="" style="rounded=1;whiteSpace=wrap;html=1;fillColor=#d5e8d4;strokeColor=#82b366;" parent="fv5nKJb4bxpMkx3xmHV2-80" vertex="1">
          <mxGeometry width="160" height="80" as="geometry" />
        </mxCell>
        <mxCell id="fv5nKJb4bxpMkx3xmHV2-82" value="&lt;span style=&quot;font-size: 16px;&quot;&gt;Присвоить стаус&lt;/span&gt;" style="text;html=1;strokeColor=none;fillColor=none;align=center;verticalAlign=middle;whiteSpace=wrap;rounded=0;" parent="fv5nKJb4bxpMkx3xmHV2-80" vertex="1">
          <mxGeometry x="30" y="12.5" width="100" height="55" as="geometry" />
        </mxCell>
        <mxCell id="fv5nKJb4bxpMkx3xmHV2-87" style="edgeStyle=orthogonalEdgeStyle;rounded=0;orthogonalLoop=1;jettySize=auto;html=1;exitX=0.5;exitY=1;exitDx=0;exitDy=0;" parent="1" source="fv5nKJb4bxpMkx3xmHV2-83" target="fv5nKJb4bxpMkx3xmHV2-81" edge="1">
          <mxGeometry relative="1" as="geometry" />
        </mxCell>
        <mxCell id="fv5nKJb4bxpMkx3xmHV2-83" value="" style="shape=mxgraph.bpmn.shape;html=1;verticalLabelPosition=bottom;labelBackgroundColor=#ffffff;verticalAlign=top;align=center;perimeter=rhombusPerimeter;background=gateway;outlineConnect=0;outline=none;symbol=exclusiveGw;" parent="1" vertex="1">
          <mxGeometry x="-810" y="1310" width="50" height="50" as="geometry" />
        </mxCell>
        <mxCell id="fv5nKJb4bxpMkx3xmHV2-84" style="edgeStyle=orthogonalEdgeStyle;rounded=0;orthogonalLoop=1;jettySize=auto;html=1;exitX=0.5;exitY=1;exitDx=0;exitDy=0;entryX=1;entryY=0.5;entryDx=0;entryDy=0;" parent="1" source="fv5nKJb4bxpMkx3xmHV2-70" target="fv5nKJb4bxpMkx3xmHV2-83" edge="1">
          <mxGeometry relative="1" as="geometry" />
        </mxCell>
        <mxCell id="fv5nKJb4bxpMkx3xmHV2-85" style="edgeStyle=orthogonalEdgeStyle;rounded=0;orthogonalLoop=1;jettySize=auto;html=1;exitX=0.5;exitY=1;exitDx=0;exitDy=0;entryX=0;entryY=0.5;entryDx=0;entryDy=0;" parent="1" source="fv5nKJb4bxpMkx3xmHV2-67" target="fv5nKJb4bxpMkx3xmHV2-83" edge="1">
          <mxGeometry relative="1" as="geometry" />
        </mxCell>
        <mxCell id="fv5nKJb4bxpMkx3xmHV2-88" value="" style="group" parent="1" vertex="1" connectable="0">
          <mxGeometry x="-875" y="1530" width="180" height="90" as="geometry" />
        </mxCell>
        <mxCell id="fv5nKJb4bxpMkx3xmHV2-89" value="" style="verticalLabelPosition=bottom;verticalAlign=top;html=1;shape=hexagon;perimeter=hexagonPerimeter2;arcSize=6;size=0.27;fillColor=#e1d5e7;strokeColor=#9673a6;" parent="fv5nKJb4bxpMkx3xmHV2-88" vertex="1">
          <mxGeometry width="180" height="90" as="geometry" />
        </mxCell>
        <mxCell id="fv5nKJb4bxpMkx3xmHV2-90" value="&lt;font style=&quot;font-size: 16px&quot;&gt;Статус присвоен&lt;/font&gt;" style="text;html=1;strokeColor=none;fillColor=none;align=center;verticalAlign=middle;whiteSpace=wrap;rounded=0;" parent="fv5nKJb4bxpMkx3xmHV2-88" vertex="1">
          <mxGeometry x="40" y="17.5" width="100" height="55" as="geometry" />
        </mxCell>
        <mxCell id="fv5nKJb4bxpMkx3xmHV2-92" style="edgeStyle=orthogonalEdgeStyle;rounded=0;orthogonalLoop=1;jettySize=auto;html=1;exitX=0.5;exitY=1;exitDx=0;exitDy=0;" parent="1" source="fv5nKJb4bxpMkx3xmHV2-81" target="fv5nKJb4bxpMkx3xmHV2-89" edge="1">
          <mxGeometry relative="1" as="geometry" />
        </mxCell>
        <mxCell id="fv5nKJb4bxpMkx3xmHV2-93" value="" style="group" parent="1" vertex="1" connectable="0">
          <mxGeometry x="-520" y="1320" width="150" height="90" as="geometry" />
        </mxCell>
        <mxCell id="fv5nKJb4bxpMkx3xmHV2-94" value="" style="shape=hexagon;perimeter=hexagonPerimeter2;whiteSpace=wrap;html=1;fixedSize=1;" parent="fv5nKJb4bxpMkx3xmHV2-93" vertex="1">
          <mxGeometry x="30" y="10" width="120" height="80" as="geometry" />
        </mxCell>
        <mxCell id="fv5nKJb4bxpMkx3xmHV2-95" value="" style="rounded=0;whiteSpace=wrap;html=1;" parent="fv5nKJb4bxpMkx3xmHV2-93" vertex="1">
          <mxGeometry width="120" height="70" as="geometry" />
        </mxCell>
        <mxCell id="fv5nKJb4bxpMkx3xmHV2-96" value="&lt;span style=&quot;font-size: 16px;&quot;&gt;Оформление договора&lt;/span&gt;" style="text;html=1;strokeColor=none;fillColor=none;align=center;verticalAlign=middle;whiteSpace=wrap;rounded=0;" parent="fv5nKJb4bxpMkx3xmHV2-93" vertex="1">
          <mxGeometry x="10" y="7.5" width="100" height="55" as="geometry" />
        </mxCell>
        <mxCell id="fv5nKJb4bxpMkx3xmHV2-97" style="edgeStyle=orthogonalEdgeStyle;rounded=0;orthogonalLoop=1;jettySize=auto;html=1;exitX=0.5;exitY=1;exitDx=0;exitDy=0;entryX=0.5;entryY=0;entryDx=0;entryDy=0;" parent="1" source="fv5nKJb4bxpMkx3xmHV2-73" target="fv5nKJb4bxpMkx3xmHV2-95" edge="1">
          <mxGeometry relative="1" as="geometry" />
        </mxCell>
        <mxCell id="fv5nKJb4bxpMkx3xmHV2-98" value="" style="group" parent="1" vertex="1" connectable="0">
          <mxGeometry x="-670" y="347.5" width="140" height="85" as="geometry" />
        </mxCell>
        <mxCell id="fv5nKJb4bxpMkx3xmHV2-99" value="" style="ellipse;whiteSpace=wrap;html=1;fillColor=#fff2cc;strokeColor=#d6b656;" parent="fv5nKJb4bxpMkx3xmHV2-98" vertex="1">
          <mxGeometry width="140" height="85" as="geometry" />
        </mxCell>
        <mxCell id="fv5nKJb4bxpMkx3xmHV2-100" value="&lt;font style=&quot;font-size: 16px&quot;&gt;Менеджер&lt;br&gt;&lt;/font&gt;" style="text;html=1;strokeColor=none;fillColor=none;align=center;verticalAlign=middle;whiteSpace=wrap;rounded=0;" parent="fv5nKJb4bxpMkx3xmHV2-98" vertex="1">
          <mxGeometry x="20" y="15" width="100" height="55" as="geometry" />
        </mxCell>
        <mxCell id="fv5nKJb4bxpMkx3xmHV2-101" style="edgeStyle=orthogonalEdgeStyle;rounded=0;orthogonalLoop=1;jettySize=auto;html=1;exitX=1;exitY=0.5;exitDx=0;exitDy=0;entryX=0;entryY=0.5;entryDx=0;entryDy=0;endArrow=none;endFill=0;" parent="1" source="fv5nKJb4bxpMkx3xmHV2-31" target="fv5nKJb4bxpMkx3xmHV2-99" edge="1">
          <mxGeometry relative="1" as="geometry" />
        </mxCell>
        <mxCell id="fv5nKJb4bxpMkx3xmHV2-102" value="" style="group" parent="1" vertex="1" connectable="0">
          <mxGeometry x="-540" y="685" width="140" height="85" as="geometry" />
        </mxCell>
        <mxCell id="fv5nKJb4bxpMkx3xmHV2-103" value="" style="ellipse;whiteSpace=wrap;html=1;fillColor=#fff2cc;strokeColor=#d6b656;" parent="fv5nKJb4bxpMkx3xmHV2-102" vertex="1">
          <mxGeometry width="140" height="85" as="geometry" />
        </mxCell>
        <mxCell id="fv5nKJb4bxpMkx3xmHV2-104" value="&lt;font style=&quot;font-size: 16px&quot;&gt;Менеджер&lt;br&gt;&lt;/font&gt;" style="text;html=1;strokeColor=none;fillColor=none;align=center;verticalAlign=middle;whiteSpace=wrap;rounded=0;" parent="fv5nKJb4bxpMkx3xmHV2-102" vertex="1">
          <mxGeometry x="20" y="15" width="100" height="55" as="geometry" />
        </mxCell>
        <mxCell id="fv5nKJb4bxpMkx3xmHV2-105" value="" style="group" parent="1" vertex="1" connectable="0">
          <mxGeometry x="-520" y="952.5" width="140" height="85" as="geometry" />
        </mxCell>
        <mxCell id="fv5nKJb4bxpMkx3xmHV2-106" value="" style="ellipse;whiteSpace=wrap;html=1;fillColor=#fff2cc;strokeColor=#d6b656;" parent="fv5nKJb4bxpMkx3xmHV2-105" vertex="1">
          <mxGeometry width="140" height="85" as="geometry" />
        </mxCell>
        <mxCell id="fv5nKJb4bxpMkx3xmHV2-107" value="&lt;font style=&quot;font-size: 16px&quot;&gt;Менеджер&lt;br&gt;&lt;/font&gt;" style="text;html=1;strokeColor=none;fillColor=none;align=center;verticalAlign=middle;whiteSpace=wrap;rounded=0;" parent="fv5nKJb4bxpMkx3xmHV2-105" vertex="1">
          <mxGeometry x="20" y="15" width="100" height="55" as="geometry" />
        </mxCell>
        <mxCell id="fv5nKJb4bxpMkx3xmHV2-108" value="" style="group" parent="1" vertex="1" connectable="0">
          <mxGeometry x="-650" y="1397.5" width="140" height="85" as="geometry" />
        </mxCell>
        <mxCell id="fv5nKJb4bxpMkx3xmHV2-109" value="" style="ellipse;whiteSpace=wrap;html=1;fillColor=#fff2cc;strokeColor=#d6b656;" parent="fv5nKJb4bxpMkx3xmHV2-108" vertex="1">
          <mxGeometry width="140" height="85" as="geometry" />
        </mxCell>
        <mxCell id="fv5nKJb4bxpMkx3xmHV2-110" value="&lt;font style=&quot;font-size: 16px&quot;&gt;Менеджер&lt;br&gt;&lt;/font&gt;" style="text;html=1;strokeColor=none;fillColor=none;align=center;verticalAlign=middle;whiteSpace=wrap;rounded=0;" parent="fv5nKJb4bxpMkx3xmHV2-108" vertex="1">
          <mxGeometry x="20" y="15" width="100" height="55" as="geometry" />
        </mxCell>
        <mxCell id="fv5nKJb4bxpMkx3xmHV2-111" style="edgeStyle=orthogonalEdgeStyle;shape=connector;rounded=0;orthogonalLoop=1;jettySize=auto;html=1;exitX=1;exitY=0.5;exitDx=0;exitDy=0;entryX=0;entryY=0.5;entryDx=0;entryDy=0;labelBackgroundColor=default;strokeColor=default;align=center;verticalAlign=middle;fontFamily=Helvetica;fontSize=11;fontColor=default;endArrow=none;endFill=0;" parent="1" source="fv5nKJb4bxpMkx3xmHV2-45" target="fv5nKJb4bxpMkx3xmHV2-103" edge="1">
          <mxGeometry relative="1" as="geometry" />
        </mxCell>
        <mxCell id="fv5nKJb4bxpMkx3xmHV2-113" style="edgeStyle=orthogonalEdgeStyle;shape=connector;rounded=0;orthogonalLoop=1;jettySize=auto;html=1;exitX=1;exitY=0.5;exitDx=0;exitDy=0;entryX=0;entryY=0.5;entryDx=0;entryDy=0;labelBackgroundColor=default;strokeColor=default;align=center;verticalAlign=middle;fontFamily=Helvetica;fontSize=11;fontColor=default;endArrow=none;endFill=0;" parent="1" source="fv5nKJb4bxpMkx3xmHV2-52" target="fv5nKJb4bxpMkx3xmHV2-106" edge="1">
          <mxGeometry relative="1" as="geometry" />
        </mxCell>
        <mxCell id="fv5nKJb4bxpMkx3xmHV2-114" style="edgeStyle=orthogonalEdgeStyle;shape=connector;rounded=0;orthogonalLoop=1;jettySize=auto;html=1;exitX=1;exitY=0.5;exitDx=0;exitDy=0;entryX=0;entryY=0.5;entryDx=0;entryDy=0;labelBackgroundColor=default;strokeColor=default;align=center;verticalAlign=middle;fontFamily=Helvetica;fontSize=11;fontColor=default;endArrow=none;endFill=0;" parent="1" source="fv5nKJb4bxpMkx3xmHV2-81" target="fv5nKJb4bxpMkx3xmHV2-109" edge="1">
          <mxGeometry relative="1" as="geometry" />
        </mxCell>
      </root>
    </mxGraphModel>
  </diagram>
  <diagram id="w7itbsUOvwamSwAO--Tr" name="IDEF0">
    <mxGraphModel dx="1037" dy="709" grid="1" gridSize="10" guides="1" tooltips="1" connect="1" arrows="1" fold="1" page="1" pageScale="1" pageWidth="827" pageHeight="1169" math="0" shadow="0">
      <root>
        <mxCell id="0" />
        <mxCell id="1" parent="0" />
        <mxCell id="Tdzs8mokaCf4kQRMkn_8-1" value="Работа канцелярского магазина" style="rounded=0;whiteSpace=wrap;html=1;fontFamily=Helvetica;fontSize=11;fontColor=default;" parent="1" vertex="1">
          <mxGeometry x="314" y="250" width="200" height="100" as="geometry" />
        </mxCell>
        <mxCell id="Tdzs8mokaCf4kQRMkn_8-2" value="" style="endArrow=classic;html=1;rounded=0;labelBackgroundColor=default;strokeColor=default;align=center;verticalAlign=middle;fontFamily=Helvetica;fontSize=11;fontColor=default;shape=connector;" parent="1" edge="1">
          <mxGeometry width="50" height="50" relative="1" as="geometry">
            <mxPoint x="150" y="270" as="sourcePoint" />
            <mxPoint x="314" y="270" as="targetPoint" />
          </mxGeometry>
        </mxCell>
        <mxCell id="Tdzs8mokaCf4kQRMkn_8-3" value="заявка" style="edgeLabel;html=1;align=center;verticalAlign=middle;resizable=0;points=[];fontSize=11;fontFamily=Helvetica;fontColor=default;" parent="Tdzs8mokaCf4kQRMkn_8-2" vertex="1" connectable="0">
          <mxGeometry x="0.2146" relative="1" as="geometry">
            <mxPoint as="offset" />
          </mxGeometry>
        </mxCell>
        <mxCell id="Tdzs8mokaCf4kQRMkn_8-4" value="" style="endArrow=classic;html=1;rounded=0;labelBackgroundColor=default;strokeColor=default;align=center;verticalAlign=middle;fontFamily=Helvetica;fontSize=11;fontColor=default;shape=connector;" parent="1" edge="1">
          <mxGeometry width="50" height="50" relative="1" as="geometry">
            <mxPoint x="150" y="290" as="sourcePoint" />
            <mxPoint x="314" y="290" as="targetPoint" />
          </mxGeometry>
        </mxCell>
        <mxCell id="Tdzs8mokaCf4kQRMkn_8-5" value="ТМЦ" style="edgeLabel;html=1;align=center;verticalAlign=middle;resizable=0;points=[];fontSize=11;fontFamily=Helvetica;fontColor=default;" parent="Tdzs8mokaCf4kQRMkn_8-4" vertex="1" connectable="0">
          <mxGeometry x="0.2146" relative="1" as="geometry">
            <mxPoint as="offset" />
          </mxGeometry>
        </mxCell>
        <mxCell id="Tdzs8mokaCf4kQRMkn_8-6" value="" style="endArrow=classic;html=1;rounded=0;labelBackgroundColor=default;strokeColor=default;align=center;verticalAlign=middle;fontFamily=Helvetica;fontSize=11;fontColor=default;shape=connector;" parent="1" edge="1">
          <mxGeometry width="50" height="50" relative="1" as="geometry">
            <mxPoint x="150" y="310" as="sourcePoint" />
            <mxPoint x="314" y="310" as="targetPoint" />
          </mxGeometry>
        </mxCell>
        <mxCell id="Tdzs8mokaCf4kQRMkn_8-7" value="информация о клиенте" style="edgeLabel;html=1;align=center;verticalAlign=middle;resizable=0;points=[];fontSize=11;fontFamily=Helvetica;fontColor=default;" parent="Tdzs8mokaCf4kQRMkn_8-6" vertex="1" connectable="0">
          <mxGeometry x="0.2146" relative="1" as="geometry">
            <mxPoint x="-10" as="offset" />
          </mxGeometry>
        </mxCell>
        <mxCell id="Tdzs8mokaCf4kQRMkn_8-8" value="" style="endArrow=classic;html=1;rounded=0;labelBackgroundColor=default;strokeColor=default;align=center;verticalAlign=middle;fontFamily=Helvetica;fontSize=11;fontColor=default;shape=connector;entryX=0.085;entryY=1.018;entryDx=0;entryDy=0;entryPerimeter=0;" parent="1" target="Tdzs8mokaCf4kQRMkn_8-1" edge="1">
          <mxGeometry width="50" height="50" relative="1" as="geometry">
            <mxPoint x="330" y="470" as="sourcePoint" />
            <mxPoint x="394" y="390" as="targetPoint" />
          </mxGeometry>
        </mxCell>
        <mxCell id="Tdzs8mokaCf4kQRMkn_8-9" value="сотрудники" style="edgeLabel;html=1;align=center;verticalAlign=middle;resizable=0;points=[];fontSize=11;fontFamily=Helvetica;fontColor=default;" parent="Tdzs8mokaCf4kQRMkn_8-8" vertex="1" connectable="0">
          <mxGeometry x="0.2146" relative="1" as="geometry">
            <mxPoint as="offset" />
          </mxGeometry>
        </mxCell>
        <mxCell id="Tdzs8mokaCf4kQRMkn_8-10" value="" style="endArrow=classic;html=1;rounded=0;labelBackgroundColor=default;strokeColor=default;align=center;verticalAlign=middle;fontFamily=Helvetica;fontSize=11;fontColor=default;shape=connector;entryX=0.085;entryY=1.018;entryDx=0;entryDy=0;entryPerimeter=0;" parent="1" edge="1">
          <mxGeometry width="50" height="50" relative="1" as="geometry">
            <mxPoint x="360" y="468" as="sourcePoint" />
            <mxPoint x="361" y="350" as="targetPoint" />
          </mxGeometry>
        </mxCell>
        <mxCell id="Tdzs8mokaCf4kQRMkn_8-11" value="сайт" style="edgeLabel;html=1;align=center;verticalAlign=middle;resizable=0;points=[];fontSize=11;fontFamily=Helvetica;fontColor=default;" parent="Tdzs8mokaCf4kQRMkn_8-10" vertex="1" connectable="0">
          <mxGeometry x="0.2146" relative="1" as="geometry">
            <mxPoint y="33" as="offset" />
          </mxGeometry>
        </mxCell>
        <mxCell id="Tdzs8mokaCf4kQRMkn_8-12" value="" style="endArrow=classic;html=1;rounded=0;labelBackgroundColor=default;strokeColor=default;align=center;verticalAlign=middle;fontFamily=Helvetica;fontSize=11;fontColor=default;shape=connector;entryX=0.085;entryY=1.018;entryDx=0;entryDy=0;entryPerimeter=0;" parent="1" edge="1">
          <mxGeometry width="50" height="50" relative="1" as="geometry">
            <mxPoint x="400" y="468" as="sourcePoint" />
            <mxPoint x="401" y="350" as="targetPoint" />
          </mxGeometry>
        </mxCell>
        <mxCell id="Tdzs8mokaCf4kQRMkn_8-13" value="интернет" style="edgeLabel;html=1;align=center;verticalAlign=middle;resizable=0;points=[];fontSize=11;fontFamily=Helvetica;fontColor=default;" parent="Tdzs8mokaCf4kQRMkn_8-12" vertex="1" connectable="0">
          <mxGeometry x="0.2146" relative="1" as="geometry">
            <mxPoint y="84" as="offset" />
          </mxGeometry>
        </mxCell>
        <mxCell id="Tdzs8mokaCf4kQRMkn_8-14" value="" style="endArrow=classic;html=1;rounded=0;labelBackgroundColor=default;strokeColor=default;align=center;verticalAlign=middle;fontFamily=Helvetica;fontSize=11;fontColor=default;shape=connector;entryX=0.085;entryY=1.018;entryDx=0;entryDy=0;entryPerimeter=0;" parent="1" edge="1">
          <mxGeometry width="50" height="50" relative="1" as="geometry">
            <mxPoint x="440" y="468" as="sourcePoint" />
            <mxPoint x="441" y="350" as="targetPoint" />
          </mxGeometry>
        </mxCell>
        <mxCell id="Tdzs8mokaCf4kQRMkn_8-15" value="сотовая связь" style="edgeLabel;html=1;align=center;verticalAlign=middle;resizable=0;points=[];fontSize=11;fontFamily=Helvetica;fontColor=default;" parent="Tdzs8mokaCf4kQRMkn_8-14" vertex="1" connectable="0">
          <mxGeometry x="0.2146" relative="1" as="geometry">
            <mxPoint x="2" y="-7" as="offset" />
          </mxGeometry>
        </mxCell>
        <mxCell id="Tdzs8mokaCf4kQRMkn_8-16" value="" style="endArrow=classic;html=1;rounded=0;labelBackgroundColor=default;strokeColor=default;align=center;verticalAlign=middle;fontFamily=Helvetica;fontSize=11;fontColor=default;shape=connector;entryX=0.13;entryY=0.003;entryDx=0;entryDy=0;entryPerimeter=0;" parent="1" target="Tdzs8mokaCf4kQRMkn_8-1" edge="1">
          <mxGeometry width="50" height="50" relative="1" as="geometry">
            <mxPoint x="340" y="110" as="sourcePoint" />
            <mxPoint x="341" y="80" as="targetPoint" />
          </mxGeometry>
        </mxCell>
        <mxCell id="Tdzs8mokaCf4kQRMkn_8-17" value="закон о зпп" style="edgeLabel;html=1;align=center;verticalAlign=middle;resizable=0;points=[];fontSize=11;fontFamily=Helvetica;fontColor=default;" parent="Tdzs8mokaCf4kQRMkn_8-16" vertex="1" connectable="0">
          <mxGeometry x="0.2146" relative="1" as="geometry">
            <mxPoint y="-65" as="offset" />
          </mxGeometry>
        </mxCell>
        <mxCell id="Tdzs8mokaCf4kQRMkn_8-18" value="" style="endArrow=classic;html=1;rounded=0;labelBackgroundColor=default;strokeColor=default;align=center;verticalAlign=middle;fontFamily=Helvetica;fontSize=11;fontColor=default;shape=connector;entryX=0.13;entryY=0.003;entryDx=0;entryDy=0;entryPerimeter=0;" parent="1" edge="1">
          <mxGeometry width="50" height="50" relative="1" as="geometry">
            <mxPoint x="370" y="110" as="sourcePoint" />
            <mxPoint x="370" y="250" as="targetPoint" />
          </mxGeometry>
        </mxCell>
        <mxCell id="Tdzs8mokaCf4kQRMkn_8-19" value="закон о зпд" style="edgeLabel;html=1;align=center;verticalAlign=middle;resizable=0;points=[];fontSize=11;fontFamily=Helvetica;fontColor=default;" parent="Tdzs8mokaCf4kQRMkn_8-18" vertex="1" connectable="0">
          <mxGeometry x="0.2146" relative="1" as="geometry">
            <mxPoint y="-45" as="offset" />
          </mxGeometry>
        </mxCell>
        <mxCell id="Tdzs8mokaCf4kQRMkn_8-20" value="" style="endArrow=classic;html=1;rounded=0;labelBackgroundColor=default;strokeColor=default;align=center;verticalAlign=middle;fontFamily=Helvetica;fontSize=11;fontColor=default;shape=connector;entryX=0.13;entryY=0.003;entryDx=0;entryDy=0;entryPerimeter=0;" parent="1" edge="1">
          <mxGeometry width="50" height="50" relative="1" as="geometry">
            <mxPoint x="400" y="110" as="sourcePoint" />
            <mxPoint x="400" y="250" as="targetPoint" />
          </mxGeometry>
        </mxCell>
        <mxCell id="Tdzs8mokaCf4kQRMkn_8-21" value="режим работы" style="edgeLabel;html=1;align=center;verticalAlign=middle;resizable=0;points=[];fontSize=11;fontFamily=Helvetica;fontColor=default;" parent="Tdzs8mokaCf4kQRMkn_8-20" vertex="1" connectable="0">
          <mxGeometry x="0.2146" relative="1" as="geometry">
            <mxPoint y="-15" as="offset" />
          </mxGeometry>
        </mxCell>
        <mxCell id="Tdzs8mokaCf4kQRMkn_8-22" value="" style="endArrow=classic;html=1;rounded=0;labelBackgroundColor=default;strokeColor=default;align=center;verticalAlign=middle;fontFamily=Helvetica;fontSize=11;fontColor=default;shape=connector;entryX=0.13;entryY=0.003;entryDx=0;entryDy=0;entryPerimeter=0;" parent="1" edge="1">
          <mxGeometry width="50" height="50" relative="1" as="geometry">
            <mxPoint x="430" y="110" as="sourcePoint" />
            <mxPoint x="430" y="250" as="targetPoint" />
          </mxGeometry>
        </mxCell>
        <mxCell id="Tdzs8mokaCf4kQRMkn_8-23" value="регламенты работы" style="edgeLabel;html=1;align=center;verticalAlign=middle;resizable=0;points=[];fontSize=11;fontFamily=Helvetica;fontColor=default;" parent="Tdzs8mokaCf4kQRMkn_8-22" vertex="1" connectable="0">
          <mxGeometry x="0.2146" relative="1" as="geometry">
            <mxPoint x="10" y="-65" as="offset" />
          </mxGeometry>
        </mxCell>
        <mxCell id="Tdzs8mokaCf4kQRMkn_8-24" value="" style="endArrow=classic;html=1;rounded=0;labelBackgroundColor=default;strokeColor=default;align=center;verticalAlign=middle;fontFamily=Helvetica;fontSize=11;fontColor=default;shape=connector;entryX=0.13;entryY=0.003;entryDx=0;entryDy=0;entryPerimeter=0;" parent="1" edge="1">
          <mxGeometry width="50" height="50" relative="1" as="geometry">
            <mxPoint x="460" y="110" as="sourcePoint" />
            <mxPoint x="460" y="250" as="targetPoint" />
          </mxGeometry>
        </mxCell>
        <mxCell id="Tdzs8mokaCf4kQRMkn_8-25" value="форма заявки" style="edgeLabel;html=1;align=center;verticalAlign=middle;resizable=0;points=[];fontSize=11;fontFamily=Helvetica;fontColor=default;" parent="Tdzs8mokaCf4kQRMkn_8-24" vertex="1" connectable="0">
          <mxGeometry x="0.2146" relative="1" as="geometry">
            <mxPoint x="10" y="15" as="offset" />
          </mxGeometry>
        </mxCell>
        <mxCell id="Tdzs8mokaCf4kQRMkn_8-26" value="" style="endArrow=classic;html=1;rounded=0;labelBackgroundColor=default;strokeColor=default;align=center;verticalAlign=middle;fontFamily=Helvetica;fontSize=11;fontColor=default;shape=connector;" parent="1" edge="1">
          <mxGeometry width="50" height="50" relative="1" as="geometry">
            <mxPoint x="514" y="259.76" as="sourcePoint" />
            <mxPoint x="678" y="259.76" as="targetPoint" />
          </mxGeometry>
        </mxCell>
        <mxCell id="Tdzs8mokaCf4kQRMkn_8-27" value="договор" style="edgeLabel;html=1;align=center;verticalAlign=middle;resizable=0;points=[];fontSize=11;fontFamily=Helvetica;fontColor=default;" parent="Tdzs8mokaCf4kQRMkn_8-26" vertex="1" connectable="0">
          <mxGeometry x="0.2146" relative="1" as="geometry">
            <mxPoint as="offset" />
          </mxGeometry>
        </mxCell>
        <mxCell id="Tdzs8mokaCf4kQRMkn_8-28" value="" style="endArrow=classic;html=1;rounded=0;labelBackgroundColor=default;strokeColor=default;align=center;verticalAlign=middle;fontFamily=Helvetica;fontSize=11;fontColor=default;shape=connector;" parent="1" edge="1">
          <mxGeometry width="50" height="50" relative="1" as="geometry">
            <mxPoint x="514" y="279.76" as="sourcePoint" />
            <mxPoint x="678" y="279.76" as="targetPoint" />
          </mxGeometry>
        </mxCell>
        <mxCell id="Tdzs8mokaCf4kQRMkn_8-29" value="чек" style="edgeLabel;html=1;align=center;verticalAlign=middle;resizable=0;points=[];fontSize=11;fontFamily=Helvetica;fontColor=default;" parent="Tdzs8mokaCf4kQRMkn_8-28" vertex="1" connectable="0">
          <mxGeometry x="0.2146" relative="1" as="geometry">
            <mxPoint as="offset" />
          </mxGeometry>
        </mxCell>
        <mxCell id="Tdzs8mokaCf4kQRMkn_8-30" value="" style="endArrow=classic;html=1;rounded=0;labelBackgroundColor=default;strokeColor=default;align=center;verticalAlign=middle;fontFamily=Helvetica;fontSize=11;fontColor=default;shape=connector;" parent="1" edge="1">
          <mxGeometry width="50" height="50" relative="1" as="geometry">
            <mxPoint x="514" y="299.76" as="sourcePoint" />
            <mxPoint x="678" y="299.76" as="targetPoint" />
          </mxGeometry>
        </mxCell>
        <mxCell id="Tdzs8mokaCf4kQRMkn_8-31" value="КП" style="edgeLabel;html=1;align=center;verticalAlign=middle;resizable=0;points=[];fontSize=11;fontFamily=Helvetica;fontColor=default;" parent="Tdzs8mokaCf4kQRMkn_8-30" vertex="1" connectable="0">
          <mxGeometry x="0.2146" relative="1" as="geometry">
            <mxPoint as="offset" />
          </mxGeometry>
        </mxCell>
        <mxCell id="Tdzs8mokaCf4kQRMkn_8-32" value="" style="endArrow=classic;html=1;rounded=0;labelBackgroundColor=default;strokeColor=default;align=center;verticalAlign=middle;fontFamily=Helvetica;fontSize=11;fontColor=default;shape=connector;" parent="1" edge="1">
          <mxGeometry width="50" height="50" relative="1" as="geometry">
            <mxPoint x="514" y="319.76" as="sourcePoint" />
            <mxPoint x="678" y="319.76" as="targetPoint" />
          </mxGeometry>
        </mxCell>
        <mxCell id="Tdzs8mokaCf4kQRMkn_8-33" value="прибыль" style="edgeLabel;html=1;align=center;verticalAlign=middle;resizable=0;points=[];fontSize=11;fontFamily=Helvetica;fontColor=default;" parent="Tdzs8mokaCf4kQRMkn_8-32" vertex="1" connectable="0">
          <mxGeometry x="0.2146" relative="1" as="geometry">
            <mxPoint as="offset" />
          </mxGeometry>
        </mxCell>
        <mxCell id="Tdzs8mokaCf4kQRMkn_8-34" value="" style="endArrow=classic;html=1;rounded=0;labelBackgroundColor=default;strokeColor=default;align=center;verticalAlign=middle;fontFamily=Helvetica;fontSize=11;fontColor=default;shape=connector;" parent="1" edge="1">
          <mxGeometry width="50" height="50" relative="1" as="geometry">
            <mxPoint x="514" y="339.76" as="sourcePoint" />
            <mxPoint x="678" y="339.76" as="targetPoint" />
          </mxGeometry>
        </mxCell>
        <mxCell id="Tdzs8mokaCf4kQRMkn_8-35" value="информация о клиенте" style="edgeLabel;html=1;align=center;verticalAlign=middle;resizable=0;points=[];fontSize=11;fontFamily=Helvetica;fontColor=default;" parent="Tdzs8mokaCf4kQRMkn_8-34" vertex="1" connectable="0">
          <mxGeometry x="0.2146" relative="1" as="geometry">
            <mxPoint x="-24" as="offset" />
          </mxGeometry>
        </mxCell>
        <mxCell id="Tdzs8mokaCf4kQRMkn_8-36" value="А0" style="text;html=1;strokeColor=none;fillColor=none;align=center;verticalAlign=middle;whiteSpace=wrap;rounded=0;fontSize=11;fontFamily=Helvetica;fontColor=default;" parent="1" vertex="1">
          <mxGeometry x="470" y="320" width="60" height="30" as="geometry" />
        </mxCell>
        <mxCell id="LtsijZV1ssscPq4vBmy1-3" value="" style="group" parent="1" vertex="1" connectable="0">
          <mxGeometry x="214" y="655.76" width="200" height="100" as="geometry" />
        </mxCell>
        <mxCell id="LtsijZV1ssscPq4vBmy1-1" value="Оформление заявки" style="rounded=0;whiteSpace=wrap;html=1;fontFamily=Helvetica;fontSize=11;fontColor=default;" parent="LtsijZV1ssscPq4vBmy1-3" vertex="1">
          <mxGeometry width="200" height="100" as="geometry" />
        </mxCell>
        <mxCell id="LtsijZV1ssscPq4vBmy1-2" value="А1" style="text;html=1;strokeColor=none;fillColor=none;align=center;verticalAlign=middle;whiteSpace=wrap;rounded=0;fontSize=11;fontFamily=Helvetica;fontColor=default;" parent="LtsijZV1ssscPq4vBmy1-3" vertex="1">
          <mxGeometry x="140" y="70" width="60" height="30" as="geometry" />
        </mxCell>
        <mxCell id="LtsijZV1ssscPq4vBmy1-4" value="" style="endArrow=classic;html=1;rounded=0;labelBackgroundColor=default;strokeColor=default;align=center;verticalAlign=middle;fontFamily=Helvetica;fontSize=11;fontColor=default;shape=connector;" parent="1" edge="1">
          <mxGeometry width="50" height="50" relative="1" as="geometry">
            <mxPoint x="50" y="690.47" as="sourcePoint" />
            <mxPoint x="214" y="690.47" as="targetPoint" />
          </mxGeometry>
        </mxCell>
        <mxCell id="LtsijZV1ssscPq4vBmy1-5" value="Контактные данные клиента" style="edgeLabel;html=1;align=center;verticalAlign=middle;resizable=0;points=[];fontSize=11;fontFamily=Helvetica;fontColor=default;" parent="LtsijZV1ssscPq4vBmy1-4" vertex="1" connectable="0">
          <mxGeometry x="0.2146" relative="1" as="geometry">
            <mxPoint x="-19" y="-10" as="offset" />
          </mxGeometry>
        </mxCell>
        <mxCell id="LtsijZV1ssscPq4vBmy1-6" value="" style="endArrow=classic;html=1;rounded=0;labelBackgroundColor=default;strokeColor=default;align=center;verticalAlign=middle;fontFamily=Helvetica;fontSize=11;fontColor=default;shape=connector;" parent="1" edge="1">
          <mxGeometry width="50" height="50" relative="1" as="geometry">
            <mxPoint x="50" y="720.47" as="sourcePoint" />
            <mxPoint x="214" y="720.47" as="targetPoint" />
          </mxGeometry>
        </mxCell>
        <mxCell id="LtsijZV1ssscPq4vBmy1-7" value="перечень канцтоваров" style="edgeLabel;html=1;align=center;verticalAlign=middle;resizable=0;points=[];fontSize=11;fontFamily=Helvetica;fontColor=default;" parent="LtsijZV1ssscPq4vBmy1-6" vertex="1" connectable="0">
          <mxGeometry x="0.2146" relative="1" as="geometry">
            <mxPoint x="-19" y="-10" as="offset" />
          </mxGeometry>
        </mxCell>
        <mxCell id="Z96Yse4bz0SgKPn3fqeP-1" value="" style="endArrow=classic;html=1;rounded=0;labelBackgroundColor=default;strokeColor=default;align=center;verticalAlign=middle;fontFamily=Helvetica;fontSize=11;fontColor=default;shape=connector;entryX=0.085;entryY=1.018;entryDx=0;entryDy=0;entryPerimeter=0;" parent="1" edge="1">
          <mxGeometry width="50" height="50" relative="1" as="geometry">
            <mxPoint x="250" y="875.76" as="sourcePoint" />
            <mxPoint x="251" y="757.76" as="targetPoint" />
          </mxGeometry>
        </mxCell>
        <mxCell id="Z96Yse4bz0SgKPn3fqeP-2" value="клиент" style="edgeLabel;html=1;align=center;verticalAlign=middle;resizable=0;points=[];fontSize=11;fontFamily=Helvetica;fontColor=default;" parent="Z96Yse4bz0SgKPn3fqeP-1" vertex="1" connectable="0">
          <mxGeometry x="0.2146" relative="1" as="geometry">
            <mxPoint as="offset" />
          </mxGeometry>
        </mxCell>
        <mxCell id="Z96Yse4bz0SgKPn3fqeP-3" value="" style="endArrow=classic;html=1;rounded=0;labelBackgroundColor=default;strokeColor=default;align=center;verticalAlign=middle;fontFamily=Helvetica;fontSize=11;fontColor=default;shape=connector;entryX=0.085;entryY=1.018;entryDx=0;entryDy=0;entryPerimeter=0;" parent="1" edge="1">
          <mxGeometry width="50" height="50" relative="1" as="geometry">
            <mxPoint x="280" y="873.76" as="sourcePoint" />
            <mxPoint x="281" y="755.76" as="targetPoint" />
          </mxGeometry>
        </mxCell>
        <mxCell id="Z96Yse4bz0SgKPn3fqeP-4" value="сайт" style="edgeLabel;html=1;align=center;verticalAlign=middle;resizable=0;points=[];fontSize=11;fontFamily=Helvetica;fontColor=default;" parent="Z96Yse4bz0SgKPn3fqeP-3" vertex="1" connectable="0">
          <mxGeometry x="0.2146" relative="1" as="geometry">
            <mxPoint y="33" as="offset" />
          </mxGeometry>
        </mxCell>
        <mxCell id="Z96Yse4bz0SgKPn3fqeP-5" value="" style="endArrow=classic;html=1;rounded=0;labelBackgroundColor=default;strokeColor=default;align=center;verticalAlign=middle;fontFamily=Helvetica;fontSize=11;fontColor=default;shape=connector;entryX=0.085;entryY=1.018;entryDx=0;entryDy=0;entryPerimeter=0;" parent="1" edge="1">
          <mxGeometry width="50" height="50" relative="1" as="geometry">
            <mxPoint x="320" y="873.76" as="sourcePoint" />
            <mxPoint x="321" y="755.76" as="targetPoint" />
          </mxGeometry>
        </mxCell>
        <mxCell id="Z96Yse4bz0SgKPn3fqeP-6" value="интернет" style="edgeLabel;html=1;align=center;verticalAlign=middle;resizable=0;points=[];fontSize=11;fontFamily=Helvetica;fontColor=default;" parent="Z96Yse4bz0SgKPn3fqeP-5" vertex="1" connectable="0">
          <mxGeometry x="0.2146" relative="1" as="geometry">
            <mxPoint y="53" as="offset" />
          </mxGeometry>
        </mxCell>
        <mxCell id="Z96Yse4bz0SgKPn3fqeP-7" value="" style="endArrow=classic;html=1;rounded=0;labelBackgroundColor=default;strokeColor=default;align=center;verticalAlign=middle;fontFamily=Helvetica;fontSize=11;fontColor=default;shape=connector;entryX=0.085;entryY=1.018;entryDx=0;entryDy=0;entryPerimeter=0;" parent="1" edge="1">
          <mxGeometry width="50" height="50" relative="1" as="geometry">
            <mxPoint x="360" y="873.76" as="sourcePoint" />
            <mxPoint x="361" y="755.76" as="targetPoint" />
          </mxGeometry>
        </mxCell>
        <mxCell id="Z96Yse4bz0SgKPn3fqeP-8" value="сотовая связь" style="edgeLabel;html=1;align=center;verticalAlign=middle;resizable=0;points=[];fontSize=11;fontFamily=Helvetica;fontColor=default;" parent="Z96Yse4bz0SgKPn3fqeP-7" vertex="1" connectable="0">
          <mxGeometry x="0.2146" relative="1" as="geometry">
            <mxPoint x="2" y="-7" as="offset" />
          </mxGeometry>
        </mxCell>
        <mxCell id="Z96Yse4bz0SgKPn3fqeP-9" value="" style="endArrow=classic;html=1;rounded=0;labelBackgroundColor=default;strokeColor=default;align=center;verticalAlign=middle;fontFamily=Helvetica;fontSize=11;fontColor=default;shape=connector;entryX=0.13;entryY=0.003;entryDx=0;entryDy=0;entryPerimeter=0;" parent="1" edge="1">
          <mxGeometry width="50" height="50" relative="1" as="geometry">
            <mxPoint x="240" y="515.76" as="sourcePoint" />
            <mxPoint x="240" y="655.76" as="targetPoint" />
          </mxGeometry>
        </mxCell>
        <mxCell id="Z96Yse4bz0SgKPn3fqeP-10" value="форма заявки" style="edgeLabel;html=1;align=center;verticalAlign=middle;resizable=0;points=[];fontSize=11;fontFamily=Helvetica;fontColor=default;" parent="Z96Yse4bz0SgKPn3fqeP-9" vertex="1" connectable="0">
          <mxGeometry x="0.2146" relative="1" as="geometry">
            <mxPoint x="10" y="15" as="offset" />
          </mxGeometry>
        </mxCell>
        <mxCell id="Z96Yse4bz0SgKPn3fqeP-11" value="" style="endArrow=classic;html=1;rounded=0;labelBackgroundColor=default;strokeColor=default;align=center;verticalAlign=middle;fontFamily=Helvetica;fontSize=11;fontColor=default;shape=connector;entryX=0.13;entryY=0.003;entryDx=0;entryDy=0;entryPerimeter=0;" parent="1" edge="1">
          <mxGeometry width="50" height="50" relative="1" as="geometry">
            <mxPoint x="290" y="515.76" as="sourcePoint" />
            <mxPoint x="290" y="655.76" as="targetPoint" />
          </mxGeometry>
        </mxCell>
        <mxCell id="Z96Yse4bz0SgKPn3fqeP-12" value="закон о зпп" style="edgeLabel;html=1;align=center;verticalAlign=middle;resizable=0;points=[];fontSize=11;fontFamily=Helvetica;fontColor=default;" parent="Z96Yse4bz0SgKPn3fqeP-11" vertex="1" connectable="0">
          <mxGeometry x="0.2146" relative="1" as="geometry">
            <mxPoint y="-65" as="offset" />
          </mxGeometry>
        </mxCell>
        <mxCell id="Z96Yse4bz0SgKPn3fqeP-13" value="" style="endArrow=classic;html=1;rounded=0;labelBackgroundColor=default;strokeColor=default;align=center;verticalAlign=middle;fontFamily=Helvetica;fontSize=11;fontColor=default;shape=connector;entryX=0.13;entryY=0.003;entryDx=0;entryDy=0;entryPerimeter=0;" parent="1" edge="1">
          <mxGeometry width="50" height="50" relative="1" as="geometry">
            <mxPoint x="340" y="515.76" as="sourcePoint" />
            <mxPoint x="340" y="655.76" as="targetPoint" />
          </mxGeometry>
        </mxCell>
        <mxCell id="Z96Yse4bz0SgKPn3fqeP-14" value="закон о зпд" style="edgeLabel;html=1;align=center;verticalAlign=middle;resizable=0;points=[];fontSize=11;fontFamily=Helvetica;fontColor=default;" parent="Z96Yse4bz0SgKPn3fqeP-13" vertex="1" connectable="0">
          <mxGeometry x="0.2146" relative="1" as="geometry">
            <mxPoint y="-45" as="offset" />
          </mxGeometry>
        </mxCell>
        <mxCell id="Z96Yse4bz0SgKPn3fqeP-15" value="" style="endArrow=classic;html=1;rounded=0;labelBackgroundColor=default;strokeColor=default;align=center;verticalAlign=middle;fontFamily=Helvetica;fontSize=11;fontColor=default;shape=connector;edgeStyle=orthogonalEdgeStyle;entryX=0;entryY=0.5;entryDx=0;entryDy=0;" parent="1" target="Z96Yse4bz0SgKPn3fqeP-25" edge="1">
          <mxGeometry width="50" height="50" relative="1" as="geometry">
            <mxPoint x="414" y="690.76" as="sourcePoint" />
            <mxPoint x="578" y="690.76" as="targetPoint" />
            <Array as="points">
              <mxPoint x="414" y="691.76" />
              <mxPoint x="560" y="691.76" />
              <mxPoint x="560" y="840.76" />
            </Array>
          </mxGeometry>
        </mxCell>
        <mxCell id="Z96Yse4bz0SgKPn3fqeP-16" value="заявка" style="edgeLabel;html=1;align=center;verticalAlign=middle;resizable=0;points=[];fontSize=11;fontFamily=Helvetica;fontColor=default;" parent="Z96Yse4bz0SgKPn3fqeP-15" vertex="1" connectable="0">
          <mxGeometry x="0.2146" relative="1" as="geometry">
            <mxPoint x="-19" y="-10" as="offset" />
          </mxGeometry>
        </mxCell>
        <mxCell id="Z96Yse4bz0SgKPn3fqeP-18" value="" style="endArrow=classic;html=1;rounded=0;labelBackgroundColor=default;strokeColor=default;align=center;verticalAlign=middle;fontFamily=Helvetica;fontSize=11;fontColor=default;shape=connector;edgeStyle=orthogonalEdgeStyle;entryX=0;entryY=0.75;entryDx=0;entryDy=0;" parent="1" target="Z96Yse4bz0SgKPn3fqeP-25" edge="1">
          <mxGeometry width="50" height="50" relative="1" as="geometry">
            <mxPoint x="414" y="720.76" as="sourcePoint" />
            <mxPoint x="578" y="720.76" as="targetPoint" />
            <Array as="points">
              <mxPoint x="414" y="721.76" />
              <mxPoint x="550" y="721.76" />
              <mxPoint x="550" y="865.76" />
            </Array>
          </mxGeometry>
        </mxCell>
        <mxCell id="Z96Yse4bz0SgKPn3fqeP-19" value="перечень товаров" style="edgeLabel;html=1;align=center;verticalAlign=middle;resizable=0;points=[];fontSize=11;fontFamily=Helvetica;fontColor=default;" parent="Z96Yse4bz0SgKPn3fqeP-18" vertex="1" connectable="0">
          <mxGeometry x="0.2146" relative="1" as="geometry">
            <mxPoint x="-19" y="-10" as="offset" />
          </mxGeometry>
        </mxCell>
        <mxCell id="Z96Yse4bz0SgKPn3fqeP-20" value="" style="endArrow=classic;html=1;rounded=0;labelBackgroundColor=default;strokeColor=default;align=center;verticalAlign=middle;fontFamily=Helvetica;fontSize=11;fontColor=default;shape=connector;edgeStyle=orthogonalEdgeStyle;entryX=0;entryY=1;entryDx=0;entryDy=0;" parent="1" target="Z96Yse4bz0SgKPn3fqeP-25" edge="1">
          <mxGeometry width="50" height="50" relative="1" as="geometry">
            <mxPoint x="414" y="750.76" as="sourcePoint" />
            <mxPoint x="578" y="750.76" as="targetPoint" />
            <Array as="points">
              <mxPoint x="414" y="751.76" />
              <mxPoint x="543" y="751.76" />
              <mxPoint x="543" y="890.76" />
            </Array>
          </mxGeometry>
        </mxCell>
        <mxCell id="Z96Yse4bz0SgKPn3fqeP-21" value="перечень товаров" style="edgeLabel;html=1;align=center;verticalAlign=middle;resizable=0;points=[];fontSize=11;fontFamily=Helvetica;fontColor=default;" parent="Z96Yse4bz0SgKPn3fqeP-20" vertex="1" connectable="0">
          <mxGeometry x="0.2146" relative="1" as="geometry">
            <mxPoint x="-19" y="-10" as="offset" />
          </mxGeometry>
        </mxCell>
        <mxCell id="Z96Yse4bz0SgKPn3fqeP-22" value="" style="endArrow=classic;html=1;rounded=0;labelBackgroundColor=default;strokeColor=default;align=center;verticalAlign=middle;fontFamily=Helvetica;fontSize=11;fontColor=default;shape=connector;edgeStyle=orthogonalEdgeStyle;entryX=0;entryY=0.25;entryDx=0;entryDy=0;" parent="1" target="Z96Yse4bz0SgKPn3fqeP-25" edge="1">
          <mxGeometry width="50" height="50" relative="1" as="geometry">
            <mxPoint x="414" y="670.76" as="sourcePoint" />
            <mxPoint x="578" y="670.76" as="targetPoint" />
            <Array as="points">
              <mxPoint x="414" y="671.76" />
              <mxPoint x="570" y="671.76" />
              <mxPoint x="570" y="815.76" />
            </Array>
          </mxGeometry>
        </mxCell>
        <mxCell id="Z96Yse4bz0SgKPn3fqeP-23" value="согласие" style="edgeLabel;html=1;align=center;verticalAlign=middle;resizable=0;points=[];fontSize=11;fontFamily=Helvetica;fontColor=default;" parent="Z96Yse4bz0SgKPn3fqeP-22" vertex="1" connectable="0">
          <mxGeometry x="0.2146" relative="1" as="geometry">
            <mxPoint x="-19" y="-10" as="offset" />
          </mxGeometry>
        </mxCell>
        <mxCell id="Z96Yse4bz0SgKPn3fqeP-24" value="" style="group" parent="1" vertex="1" connectable="0">
          <mxGeometry x="670" y="790.76" width="200" height="100" as="geometry" />
        </mxCell>
        <mxCell id="Z96Yse4bz0SgKPn3fqeP-59" style="edgeStyle=orthogonalEdgeStyle;shape=connector;rounded=0;orthogonalLoop=1;jettySize=auto;html=1;exitX=1;exitY=0.25;exitDx=0;exitDy=0;labelBackgroundColor=default;strokeColor=default;align=center;verticalAlign=middle;fontFamily=Helvetica;fontSize=11;fontColor=default;endArrow=classic;" parent="Z96Yse4bz0SgKPn3fqeP-24" source="Z96Yse4bz0SgKPn3fqeP-25" edge="1">
          <mxGeometry relative="1" as="geometry">
            <mxPoint x="450" y="25.274482758620707" as="targetPoint" />
          </mxGeometry>
        </mxCell>
        <mxCell id="Z96Yse4bz0SgKPn3fqeP-60" value="Информация по отказам" style="edgeLabel;html=1;align=center;verticalAlign=middle;resizable=0;points=[];fontSize=11;fontFamily=Helvetica;fontColor=default;" parent="Z96Yse4bz0SgKPn3fqeP-59" vertex="1" connectable="0">
          <mxGeometry x="0.2218" y="1" relative="1" as="geometry">
            <mxPoint as="offset" />
          </mxGeometry>
        </mxCell>
        <mxCell id="Z96Yse4bz0SgKPn3fqeP-25" value="Рассмотрение заявки" style="rounded=0;whiteSpace=wrap;html=1;fontFamily=Helvetica;fontSize=11;fontColor=default;" parent="Z96Yse4bz0SgKPn3fqeP-24" vertex="1">
          <mxGeometry width="200" height="100" as="geometry" />
        </mxCell>
        <mxCell id="Z96Yse4bz0SgKPn3fqeP-26" value="А2" style="text;html=1;strokeColor=none;fillColor=none;align=center;verticalAlign=middle;whiteSpace=wrap;rounded=0;fontSize=11;fontFamily=Helvetica;fontColor=default;" parent="Z96Yse4bz0SgKPn3fqeP-24" vertex="1">
          <mxGeometry x="140" y="70" width="60" height="30" as="geometry" />
        </mxCell>
        <mxCell id="Z96Yse4bz0SgKPn3fqeP-29" value="" style="endArrow=classic;html=1;rounded=0;labelBackgroundColor=default;strokeColor=default;align=center;verticalAlign=middle;fontFamily=Helvetica;fontSize=11;fontColor=default;shape=connector;" parent="1" edge="1">
          <mxGeometry width="50" height="50" relative="1" as="geometry">
            <mxPoint x="700" y="1010" as="sourcePoint" />
            <mxPoint x="700" y="890.76" as="targetPoint" />
          </mxGeometry>
        </mxCell>
        <mxCell id="Z96Yse4bz0SgKPn3fqeP-30" value="менеджер" style="edgeLabel;html=1;align=center;verticalAlign=middle;resizable=0;points=[];fontSize=11;fontFamily=Helvetica;fontColor=default;" parent="Z96Yse4bz0SgKPn3fqeP-29" vertex="1" connectable="0">
          <mxGeometry x="0.2146" relative="1" as="geometry">
            <mxPoint y="-17" as="offset" />
          </mxGeometry>
        </mxCell>
        <mxCell id="Z96Yse4bz0SgKPn3fqeP-38" value="" style="endArrow=classic;html=1;rounded=0;labelBackgroundColor=default;strokeColor=default;align=center;verticalAlign=middle;fontFamily=Helvetica;fontSize=11;fontColor=default;shape=connector;entryX=0.085;entryY=1.018;entryDx=0;entryDy=0;entryPerimeter=0;" parent="1" edge="1">
          <mxGeometry width="50" height="50" relative="1" as="geometry">
            <mxPoint x="740" y="1008.76" as="sourcePoint" />
            <mxPoint x="741" y="890.76" as="targetPoint" />
          </mxGeometry>
        </mxCell>
        <mxCell id="Z96Yse4bz0SgKPn3fqeP-39" value="сайт" style="edgeLabel;html=1;align=center;verticalAlign=middle;resizable=0;points=[];fontSize=11;fontFamily=Helvetica;fontColor=default;" parent="Z96Yse4bz0SgKPn3fqeP-38" vertex="1" connectable="0">
          <mxGeometry x="0.2146" relative="1" as="geometry">
            <mxPoint y="33" as="offset" />
          </mxGeometry>
        </mxCell>
        <mxCell id="Z96Yse4bz0SgKPn3fqeP-40" value="" style="endArrow=classic;html=1;rounded=0;labelBackgroundColor=default;strokeColor=default;align=center;verticalAlign=middle;fontFamily=Helvetica;fontSize=11;fontColor=default;shape=connector;entryX=0.085;entryY=1.018;entryDx=0;entryDy=0;entryPerimeter=0;" parent="1" edge="1">
          <mxGeometry width="50" height="50" relative="1" as="geometry">
            <mxPoint x="780" y="1008.76" as="sourcePoint" />
            <mxPoint x="781" y="890.76" as="targetPoint" />
          </mxGeometry>
        </mxCell>
        <mxCell id="Z96Yse4bz0SgKPn3fqeP-41" value="интернет" style="edgeLabel;html=1;align=center;verticalAlign=middle;resizable=0;points=[];fontSize=11;fontFamily=Helvetica;fontColor=default;" parent="Z96Yse4bz0SgKPn3fqeP-40" vertex="1" connectable="0">
          <mxGeometry x="0.2146" relative="1" as="geometry">
            <mxPoint y="53" as="offset" />
          </mxGeometry>
        </mxCell>
        <mxCell id="Z96Yse4bz0SgKPn3fqeP-42" value="" style="endArrow=classic;html=1;rounded=0;labelBackgroundColor=default;strokeColor=default;align=center;verticalAlign=middle;fontFamily=Helvetica;fontSize=11;fontColor=default;shape=connector;entryX=0.085;entryY=1.018;entryDx=0;entryDy=0;entryPerimeter=0;" parent="1" edge="1">
          <mxGeometry width="50" height="50" relative="1" as="geometry">
            <mxPoint x="827" y="1008.76" as="sourcePoint" />
            <mxPoint x="828" y="890.76" as="targetPoint" />
          </mxGeometry>
        </mxCell>
        <mxCell id="Z96Yse4bz0SgKPn3fqeP-43" value="сотовая связь" style="edgeLabel;html=1;align=center;verticalAlign=middle;resizable=0;points=[];fontSize=11;fontFamily=Helvetica;fontColor=default;" parent="Z96Yse4bz0SgKPn3fqeP-42" vertex="1" connectable="0">
          <mxGeometry x="0.2146" relative="1" as="geometry">
            <mxPoint x="2" y="-7" as="offset" />
          </mxGeometry>
        </mxCell>
        <mxCell id="Z96Yse4bz0SgKPn3fqeP-44" value="" style="endArrow=classic;html=1;rounded=0;labelBackgroundColor=default;strokeColor=default;align=center;verticalAlign=middle;fontFamily=Helvetica;fontSize=11;fontColor=default;shape=connector;entryX=0.13;entryY=0.003;entryDx=0;entryDy=0;entryPerimeter=0;" parent="1" edge="1">
          <mxGeometry width="50" height="50" relative="1" as="geometry">
            <mxPoint x="690" y="650" as="sourcePoint" />
            <mxPoint x="690" y="790" as="targetPoint" />
          </mxGeometry>
        </mxCell>
        <mxCell id="Z96Yse4bz0SgKPn3fqeP-45" value="форма заявки" style="edgeLabel;html=1;align=center;verticalAlign=middle;resizable=0;points=[];fontSize=11;fontFamily=Helvetica;fontColor=default;" parent="Z96Yse4bz0SgKPn3fqeP-44" vertex="1" connectable="0">
          <mxGeometry x="0.2146" relative="1" as="geometry">
            <mxPoint x="10" y="15" as="offset" />
          </mxGeometry>
        </mxCell>
        <mxCell id="Z96Yse4bz0SgKPn3fqeP-46" value="" style="endArrow=classic;html=1;rounded=0;labelBackgroundColor=default;strokeColor=default;align=center;verticalAlign=middle;fontFamily=Helvetica;fontSize=11;fontColor=default;shape=connector;entryX=0.13;entryY=0.003;entryDx=0;entryDy=0;entryPerimeter=0;" parent="1" edge="1">
          <mxGeometry width="50" height="50" relative="1" as="geometry">
            <mxPoint x="720" y="650.76" as="sourcePoint" />
            <mxPoint x="720" y="790.76" as="targetPoint" />
          </mxGeometry>
        </mxCell>
        <mxCell id="Z96Yse4bz0SgKPn3fqeP-47" value="режим работы" style="edgeLabel;html=1;align=center;verticalAlign=middle;resizable=0;points=[];fontSize=11;fontFamily=Helvetica;fontColor=default;" parent="Z96Yse4bz0SgKPn3fqeP-46" vertex="1" connectable="0">
          <mxGeometry x="0.2146" relative="1" as="geometry">
            <mxPoint y="-15" as="offset" />
          </mxGeometry>
        </mxCell>
        <mxCell id="Z96Yse4bz0SgKPn3fqeP-48" value="" style="endArrow=classic;html=1;rounded=0;labelBackgroundColor=default;strokeColor=default;align=center;verticalAlign=middle;fontFamily=Helvetica;fontSize=11;fontColor=default;shape=connector;entryX=0.13;entryY=0.003;entryDx=0;entryDy=0;entryPerimeter=0;" parent="1" edge="1">
          <mxGeometry width="50" height="50" relative="1" as="geometry">
            <mxPoint x="760" y="650" as="sourcePoint" />
            <mxPoint x="760" y="790" as="targetPoint" />
          </mxGeometry>
        </mxCell>
        <mxCell id="Z96Yse4bz0SgKPn3fqeP-49" value="регламенты работы" style="edgeLabel;html=1;align=center;verticalAlign=middle;resizable=0;points=[];fontSize=11;fontFamily=Helvetica;fontColor=default;" parent="Z96Yse4bz0SgKPn3fqeP-48" vertex="1" connectable="0">
          <mxGeometry x="0.2146" relative="1" as="geometry">
            <mxPoint x="10" y="-65" as="offset" />
          </mxGeometry>
        </mxCell>
        <mxCell id="Z96Yse4bz0SgKPn3fqeP-50" value="" style="endArrow=classic;html=1;rounded=0;labelBackgroundColor=default;strokeColor=default;align=center;verticalAlign=middle;fontFamily=Helvetica;fontSize=11;fontColor=default;shape=connector;entryX=0.13;entryY=0.003;entryDx=0;entryDy=0;entryPerimeter=0;" parent="1" edge="1">
          <mxGeometry width="50" height="50" relative="1" as="geometry">
            <mxPoint x="800" y="650.76" as="sourcePoint" />
            <mxPoint x="800" y="790.76" as="targetPoint" />
          </mxGeometry>
        </mxCell>
        <mxCell id="Z96Yse4bz0SgKPn3fqeP-51" value="закон о зпп" style="edgeLabel;html=1;align=center;verticalAlign=middle;resizable=0;points=[];fontSize=11;fontFamily=Helvetica;fontColor=default;" parent="Z96Yse4bz0SgKPn3fqeP-50" vertex="1" connectable="0">
          <mxGeometry x="0.2146" relative="1" as="geometry">
            <mxPoint y="-30" as="offset" />
          </mxGeometry>
        </mxCell>
        <mxCell id="Z96Yse4bz0SgKPn3fqeP-52" value="" style="group" parent="1" vertex="1" connectable="0">
          <mxGeometry x="1060" y="950" width="200" height="100" as="geometry" />
        </mxCell>
        <mxCell id="Z96Yse4bz0SgKPn3fqeP-53" value="Оформление договора" style="rounded=0;whiteSpace=wrap;html=1;fontFamily=Helvetica;fontSize=11;fontColor=default;" parent="Z96Yse4bz0SgKPn3fqeP-52" vertex="1">
          <mxGeometry width="200" height="100" as="geometry" />
        </mxCell>
        <mxCell id="Z96Yse4bz0SgKPn3fqeP-54" value="А3" style="text;html=1;strokeColor=none;fillColor=none;align=center;verticalAlign=middle;whiteSpace=wrap;rounded=0;fontSize=11;fontFamily=Helvetica;fontColor=default;" parent="Z96Yse4bz0SgKPn3fqeP-52" vertex="1">
          <mxGeometry x="140" y="70" width="60" height="30" as="geometry" />
        </mxCell>
        <mxCell id="Z96Yse4bz0SgKPn3fqeP-55" value="" style="endArrow=classic;html=1;rounded=0;labelBackgroundColor=default;strokeColor=default;align=center;verticalAlign=middle;fontFamily=Helvetica;fontSize=11;fontColor=default;shape=connector;edgeStyle=orthogonalEdgeStyle;entryX=0;entryY=0.25;entryDx=0;entryDy=0;" parent="1" target="Z96Yse4bz0SgKPn3fqeP-53" edge="1">
          <mxGeometry width="50" height="50" relative="1" as="geometry">
            <mxPoint x="870" y="821" as="sourcePoint" />
            <mxPoint x="1310" y="770" as="targetPoint" />
            <Array as="points">
              <mxPoint x="870" y="830" />
              <mxPoint x="980" y="830" />
              <mxPoint x="980" y="975" />
            </Array>
          </mxGeometry>
        </mxCell>
        <mxCell id="Z96Yse4bz0SgKPn3fqeP-56" value="КП согласованое" style="edgeLabel;html=1;align=center;verticalAlign=middle;resizable=0;points=[];fontSize=11;fontFamily=Helvetica;fontColor=default;" parent="Z96Yse4bz0SgKPn3fqeP-55" vertex="1" connectable="0">
          <mxGeometry x="-0.2838" relative="1" as="geometry">
            <mxPoint as="offset" />
          </mxGeometry>
        </mxCell>
        <mxCell id="Z96Yse4bz0SgKPn3fqeP-57" value="" style="endArrow=classic;html=1;rounded=0;labelBackgroundColor=default;strokeColor=default;align=center;verticalAlign=middle;fontFamily=Helvetica;fontSize=11;fontColor=default;shape=connector;edgeStyle=orthogonalEdgeStyle;entryX=0;entryY=0.75;entryDx=0;entryDy=0;exitX=1.01;exitY=0.592;exitDx=0;exitDy=0;exitPerimeter=0;" parent="1" source="Z96Yse4bz0SgKPn3fqeP-25" target="Z96Yse4bz0SgKPn3fqeP-53" edge="1">
          <mxGeometry width="50" height="50" relative="1" as="geometry">
            <mxPoint x="880" y="831" as="sourcePoint" />
            <mxPoint x="1070" y="985" as="targetPoint" />
          </mxGeometry>
        </mxCell>
        <mxCell id="Z96Yse4bz0SgKPn3fqeP-58" value="информация о клиенте" style="edgeLabel;html=1;align=center;verticalAlign=middle;resizable=0;points=[];fontSize=11;fontFamily=Helvetica;fontColor=default;" parent="Z96Yse4bz0SgKPn3fqeP-57" vertex="1" connectable="0">
          <mxGeometry x="-0.2838" relative="1" as="geometry">
            <mxPoint x="5" y="113" as="offset" />
          </mxGeometry>
        </mxCell>
        <mxCell id="Z96Yse4bz0SgKPn3fqeP-61" value="" style="group" parent="1" vertex="1" connectable="0">
          <mxGeometry x="1370" y="1080" width="200" height="100" as="geometry" />
        </mxCell>
        <mxCell id="Z96Yse4bz0SgKPn3fqeP-62" value="Оплата" style="rounded=0;whiteSpace=wrap;html=1;fontFamily=Helvetica;fontSize=11;fontColor=default;" parent="Z96Yse4bz0SgKPn3fqeP-61" vertex="1">
          <mxGeometry width="200" height="100" as="geometry" />
        </mxCell>
        <mxCell id="Z96Yse4bz0SgKPn3fqeP-63" value="А3" style="text;html=1;strokeColor=none;fillColor=none;align=center;verticalAlign=middle;whiteSpace=wrap;rounded=0;fontSize=11;fontFamily=Helvetica;fontColor=default;" parent="Z96Yse4bz0SgKPn3fqeP-61" vertex="1">
          <mxGeometry x="140" y="70" width="60" height="30" as="geometry" />
        </mxCell>
        <mxCell id="Z96Yse4bz0SgKPn3fqeP-64" value="" style="group" parent="1" vertex="1" connectable="0">
          <mxGeometry x="1710" y="1180" width="200" height="100" as="geometry" />
        </mxCell>
        <mxCell id="Z96Yse4bz0SgKPn3fqeP-65" value="Доставка" style="rounded=0;whiteSpace=wrap;html=1;fontFamily=Helvetica;fontSize=11;fontColor=default;" parent="Z96Yse4bz0SgKPn3fqeP-64" vertex="1">
          <mxGeometry width="200" height="100" as="geometry" />
        </mxCell>
        <mxCell id="Z96Yse4bz0SgKPn3fqeP-66" value="А3" style="text;html=1;strokeColor=none;fillColor=none;align=center;verticalAlign=middle;whiteSpace=wrap;rounded=0;fontSize=11;fontFamily=Helvetica;fontColor=default;" parent="Z96Yse4bz0SgKPn3fqeP-64" vertex="1">
          <mxGeometry x="140" y="70" width="60" height="30" as="geometry" />
        </mxCell>
        <mxCell id="Z96Yse4bz0SgKPn3fqeP-67" value="" style="group" parent="1" vertex="1" connectable="0">
          <mxGeometry x="200" y="1240" width="200" height="100" as="geometry" />
        </mxCell>
        <mxCell id="Z96Yse4bz0SgKPn3fqeP-68" value="Выбор товара" style="rounded=0;whiteSpace=wrap;html=1;fontFamily=Helvetica;fontSize=11;fontColor=default;" parent="Z96Yse4bz0SgKPn3fqeP-67" vertex="1">
          <mxGeometry width="200" height="100" as="geometry" />
        </mxCell>
        <mxCell id="Z96Yse4bz0SgKPn3fqeP-69" value="А1.1" style="text;html=1;strokeColor=none;fillColor=none;align=center;verticalAlign=middle;whiteSpace=wrap;rounded=0;fontSize=11;fontFamily=Helvetica;fontColor=default;" parent="Z96Yse4bz0SgKPn3fqeP-67" vertex="1">
          <mxGeometry x="140" y="70" width="60" height="30" as="geometry" />
        </mxCell>
        <mxCell id="Z96Yse4bz0SgKPn3fqeP-70" value="" style="group" parent="1" vertex="1" connectable="0">
          <mxGeometry x="510" y="1340" width="200" height="100" as="geometry" />
        </mxCell>
        <mxCell id="Z96Yse4bz0SgKPn3fqeP-71" value="Заполнение контактных данных клиента" style="rounded=0;whiteSpace=wrap;html=1;fontFamily=Helvetica;fontSize=11;fontColor=default;" parent="Z96Yse4bz0SgKPn3fqeP-70" vertex="1">
          <mxGeometry width="200" height="100" as="geometry" />
        </mxCell>
        <mxCell id="Z96Yse4bz0SgKPn3fqeP-72" value="А1.2" style="text;html=1;strokeColor=none;fillColor=none;align=center;verticalAlign=middle;whiteSpace=wrap;rounded=0;fontSize=11;fontFamily=Helvetica;fontColor=default;" parent="Z96Yse4bz0SgKPn3fqeP-70" vertex="1">
          <mxGeometry x="140" y="70" width="60" height="30" as="geometry" />
        </mxCell>
        <mxCell id="Z96Yse4bz0SgKPn3fqeP-73" value="" style="group" parent="1" vertex="1" connectable="0">
          <mxGeometry x="820" y="1430" width="200" height="100" as="geometry" />
        </mxCell>
        <mxCell id="Z96Yse4bz0SgKPn3fqeP-74" value="Заполнение адреса доставки" style="rounded=0;whiteSpace=wrap;html=1;fontFamily=Helvetica;fontSize=11;fontColor=default;" parent="Z96Yse4bz0SgKPn3fqeP-73" vertex="1">
          <mxGeometry width="200" height="100" as="geometry" />
        </mxCell>
        <mxCell id="Z96Yse4bz0SgKPn3fqeP-75" value="А1.3" style="text;html=1;strokeColor=none;fillColor=none;align=center;verticalAlign=middle;whiteSpace=wrap;rounded=0;fontSize=11;fontFamily=Helvetica;fontColor=default;" parent="Z96Yse4bz0SgKPn3fqeP-73" vertex="1">
          <mxGeometry x="140" y="70" width="60" height="30" as="geometry" />
        </mxCell>
        <mxCell id="Z96Yse4bz0SgKPn3fqeP-76" value="" style="group" parent="1" vertex="1" connectable="0">
          <mxGeometry x="1130" y="1520" width="200" height="100" as="geometry" />
        </mxCell>
        <mxCell id="Z96Yse4bz0SgKPn3fqeP-77" value="Выбор варианта оплаты" style="rounded=0;whiteSpace=wrap;html=1;fontFamily=Helvetica;fontSize=11;fontColor=default;" parent="Z96Yse4bz0SgKPn3fqeP-76" vertex="1">
          <mxGeometry width="200" height="100" as="geometry" />
        </mxCell>
        <mxCell id="Z96Yse4bz0SgKPn3fqeP-78" value="А1.4" style="text;html=1;strokeColor=none;fillColor=none;align=center;verticalAlign=middle;whiteSpace=wrap;rounded=0;fontSize=11;fontFamily=Helvetica;fontColor=default;" parent="Z96Yse4bz0SgKPn3fqeP-76" vertex="1">
          <mxGeometry x="140" y="70" width="60" height="30" as="geometry" />
        </mxCell>
        <mxCell id="Z96Yse4bz0SgKPn3fqeP-79" value="" style="endArrow=classic;html=1;rounded=0;labelBackgroundColor=default;strokeColor=default;align=center;verticalAlign=middle;fontFamily=Helvetica;fontSize=11;fontColor=default;shape=connector;exitX=1;exitY=0.5;exitDx=0;exitDy=0;entryX=0;entryY=0.5;entryDx=0;entryDy=0;edgeStyle=orthogonalEdgeStyle;" parent="1" source="Z96Yse4bz0SgKPn3fqeP-68" target="Z96Yse4bz0SgKPn3fqeP-71" edge="1">
          <mxGeometry width="50" height="50" relative="1" as="geometry">
            <mxPoint x="810" y="1250" as="sourcePoint" />
            <mxPoint x="860" y="1200" as="targetPoint" />
          </mxGeometry>
        </mxCell>
        <mxCell id="Z96Yse4bz0SgKPn3fqeP-80" value="" style="endArrow=classic;html=1;rounded=0;labelBackgroundColor=default;strokeColor=default;align=center;verticalAlign=middle;fontFamily=Helvetica;fontSize=11;fontColor=default;shape=connector;entryX=0;entryY=0.5;entryDx=0;entryDy=0;edgeStyle=orthogonalEdgeStyle;" parent="1" target="Z96Yse4bz0SgKPn3fqeP-74" edge="1">
          <mxGeometry width="50" height="50" relative="1" as="geometry">
            <mxPoint x="710" y="1380" as="sourcePoint" />
            <mxPoint x="830" y="1450" as="targetPoint" />
          </mxGeometry>
        </mxCell>
        <mxCell id="Z96Yse4bz0SgKPn3fqeP-81" style="edgeStyle=orthogonalEdgeStyle;shape=connector;rounded=0;orthogonalLoop=1;jettySize=auto;html=1;labelBackgroundColor=default;strokeColor=default;align=center;verticalAlign=middle;fontFamily=Helvetica;fontSize=11;fontColor=default;endArrow=classic;" parent="1" source="Z96Yse4bz0SgKPn3fqeP-74" target="Z96Yse4bz0SgKPn3fqeP-77" edge="1">
          <mxGeometry relative="1" as="geometry" />
        </mxCell>
      </root>
    </mxGraphModel>
  </diagram>
</mxfile>
